<svg width="504" height="551" viewBox="0 0 504 551" fill="none" xmlns="http://www.w3.org/2000/svg">
<circle cx="108" cy="443" r="108" fill="white"/>
<circle cx="108" cy="443" r="106.5" stroke="#625697" stroke-opacity="0.5" stroke-width="3"/>
<path d="M502.996 149.146C502.38 229.804 436.803 295 356 295C274.814 295 209 229.186 209 148C209 66.8141 274.814 1 356 1C366.044 1 371.76 3.789 374.85 8.31752C377.991 12.9214 378.618 19.5903 377.808 27.8082C377.042 35.5876 375.014 44.5354 372.856 54.0622C372.742 54.564 372.628 55.0674 372.514 55.5723C370.238 65.6327 367.89 76.2678 366.844 86.6498C364.753 107.412 367.847 127.472 387.414 140.06C406.711 152.474 441.798 157.433 502.996 149.146Z" fill="white" stroke="#D67676" stroke-width="2"/>
<g filter="url(#filter0_d)">
<path d="M90.3041 90C90.3041 85.8579 93.6619 82.5 97.8041 82.5H288.13C292.272 82.5 295.63 85.8579 295.63 90V450C295.63 454.142 292.272 457.5 288.13 457.5H97.8041C93.6619 457.5 90.3041 454.142 90.3041 450V90Z" fill="white" stroke="#5A5858" stroke-width="5"/>
<circle cx="272.5" cy="430.5" r="12" stroke="#D67676" stroke-opacity="0.85"/>
<path d="M275.354 431.354C275.549 431.158 275.549 430.842 275.354 430.646L272.172 427.464C271.976 427.269 271.66 427.269 271.464 427.464C271.269 427.66 271.269 427.976 271.464 428.172L274.293 431L271.464 433.828C271.269 434.024 271.269 434.34 271.464 434.536C271.66 434.731 271.976 434.731 272.172 434.536L275.354 431.354ZM274 431.5H275V430.5H274V431.5Z" fill="#7B7B7B"/>
<rect x="101.3" y="195.3" width="81.4" height="43.4" rx="2.7" stroke="#4266B3" stroke-opacity="0.4" stroke-width="0.6"/>
<path d="M122.358 212.333V213.147H119.025V215.732H121.731V216.546H119.025V220H118.024V212.333H122.358ZM123.193 216.964C123.193 216.348 123.317 215.809 123.567 215.347C123.816 214.878 124.157 214.515 124.59 214.258C125.03 214.001 125.517 213.873 126.053 213.873C126.581 213.873 127.039 213.987 127.428 214.214C127.816 214.441 128.106 214.727 128.297 215.072V213.972H129.309V220H128.297V218.878C128.099 219.23 127.802 219.523 127.406 219.758C127.017 219.985 126.562 220.099 126.042 220.099C125.506 220.099 125.022 219.967 124.59 219.703C124.157 219.439 123.816 219.069 123.567 218.592C123.317 218.115 123.193 217.573 123.193 216.964ZM128.297 216.975C128.297 216.52 128.205 216.124 128.022 215.787C127.838 215.45 127.589 215.193 127.274 215.017C126.966 214.834 126.625 214.742 126.251 214.742C125.877 214.742 125.536 214.83 125.228 215.006C124.92 215.182 124.674 215.439 124.491 215.776C124.307 216.113 124.216 216.509 124.216 216.964C124.216 217.426 124.307 217.829 124.491 218.174C124.674 218.511 124.92 218.772 125.228 218.955C125.536 219.131 125.877 219.219 126.251 219.219C126.625 219.219 126.966 219.131 127.274 218.955C127.589 218.772 127.838 218.511 128.022 218.174C128.205 217.829 128.297 217.43 128.297 216.975ZM130.626 216.975C130.626 216.352 130.751 215.809 131 215.347C131.25 214.878 131.594 214.515 132.034 214.258C132.482 214.001 132.991 213.873 133.563 213.873C134.304 213.873 134.913 214.053 135.389 214.412C135.873 214.771 136.192 215.27 136.346 215.908H135.268C135.166 215.541 134.964 215.252 134.663 215.039C134.37 214.826 134.003 214.72 133.563 214.72C132.991 214.72 132.529 214.918 132.177 215.314C131.825 215.703 131.649 216.256 131.649 216.975C131.649 217.701 131.825 218.262 132.177 218.658C132.529 219.054 132.991 219.252 133.563 219.252C134.003 219.252 134.37 219.149 134.663 218.944C134.957 218.739 135.158 218.445 135.268 218.064H136.346C136.185 218.68 135.862 219.175 135.378 219.549C134.894 219.916 134.289 220.099 133.563 220.099C132.991 220.099 132.482 219.971 132.034 219.714C131.594 219.457 131.25 219.094 131 218.625C130.751 218.156 130.626 217.606 130.626 216.975ZM143.182 216.755C143.182 216.946 143.171 217.147 143.149 217.36H138.331C138.368 217.954 138.569 218.42 138.936 218.757C139.31 219.087 139.761 219.252 140.289 219.252C140.722 219.252 141.081 219.153 141.367 218.955C141.66 218.75 141.866 218.478 141.983 218.141H143.061C142.9 218.72 142.577 219.193 142.093 219.56C141.609 219.919 141.008 220.099 140.289 220.099C139.717 220.099 139.204 219.971 138.749 219.714C138.302 219.457 137.95 219.094 137.693 218.625C137.436 218.148 137.308 217.598 137.308 216.975C137.308 216.352 137.433 215.805 137.682 215.336C137.931 214.867 138.28 214.507 138.727 214.258C139.182 214.001 139.702 213.873 140.289 213.873C140.861 213.873 141.367 213.998 141.807 214.247C142.247 214.496 142.584 214.841 142.819 215.281C143.061 215.714 143.182 216.205 143.182 216.755ZM142.148 216.546C142.148 216.165 142.064 215.838 141.895 215.567C141.726 215.288 141.495 215.079 141.202 214.94C140.916 214.793 140.597 214.72 140.245 214.72C139.739 214.72 139.306 214.881 138.947 215.204C138.595 215.527 138.393 215.974 138.342 216.546H142.148ZM145.504 215.094C145.71 214.735 146.01 214.441 146.406 214.214C146.802 213.987 147.253 213.873 147.759 213.873C148.302 213.873 148.79 214.001 149.222 214.258C149.655 214.515 149.996 214.878 150.245 215.347C150.495 215.809 150.619 216.348 150.619 216.964C150.619 217.573 150.495 218.115 150.245 218.592C149.996 219.069 149.651 219.439 149.211 219.703C148.779 219.967 148.295 220.099 147.759 220.099C147.239 220.099 146.78 219.985 146.384 219.758C145.996 219.531 145.702 219.241 145.504 218.889V220H144.503V211.86H145.504V215.094ZM149.596 216.964C149.596 216.509 149.505 216.113 149.321 215.776C149.138 215.439 148.889 215.182 148.573 215.006C148.265 214.83 147.924 214.742 147.55 214.742C147.184 214.742 146.843 214.834 146.527 215.017C146.219 215.193 145.97 215.453 145.779 215.798C145.596 216.135 145.504 216.528 145.504 216.975C145.504 217.43 145.596 217.829 145.779 218.174C145.97 218.511 146.219 218.772 146.527 218.955C146.843 219.131 147.184 219.219 147.55 219.219C147.924 219.219 148.265 219.131 148.573 218.955C148.889 218.772 149.138 218.511 149.321 218.174C149.505 217.829 149.596 217.426 149.596 216.964ZM154.566 220.099C154.001 220.099 153.488 219.971 153.026 219.714C152.571 219.457 152.212 219.094 151.948 218.625C151.691 218.148 151.563 217.598 151.563 216.975C151.563 216.359 151.695 215.816 151.959 215.347C152.23 214.87 152.597 214.507 153.059 214.258C153.521 214.001 154.038 213.873 154.61 213.873C155.182 213.873 155.699 214.001 156.161 214.258C156.623 214.507 156.986 214.867 157.25 215.336C157.521 215.805 157.657 216.352 157.657 216.975C157.657 217.598 157.518 218.148 157.239 218.625C156.968 219.094 156.597 219.457 156.128 219.714C155.659 219.971 155.138 220.099 154.566 220.099ZM154.566 219.219C154.925 219.219 155.263 219.135 155.578 218.966C155.893 218.797 156.146 218.544 156.337 218.207C156.535 217.87 156.634 217.459 156.634 216.975C156.634 216.491 156.539 216.08 156.348 215.743C156.157 215.406 155.908 215.156 155.6 214.995C155.292 214.826 154.958 214.742 154.599 214.742C154.232 214.742 153.895 214.826 153.587 214.995C153.286 215.156 153.044 215.406 152.861 215.743C152.678 216.08 152.586 216.491 152.586 216.975C152.586 217.466 152.674 217.881 152.85 218.218C153.033 218.555 153.275 218.808 153.576 218.977C153.877 219.138 154.207 219.219 154.566 219.219ZM161.602 220.099C161.037 220.099 160.524 219.971 160.062 219.714C159.607 219.457 159.248 219.094 158.984 218.625C158.727 218.148 158.599 217.598 158.599 216.975C158.599 216.359 158.731 215.816 158.995 215.347C159.266 214.87 159.633 214.507 160.095 214.258C160.557 214.001 161.074 213.873 161.646 213.873C162.218 213.873 162.735 214.001 163.197 214.258C163.659 214.507 164.022 214.867 164.286 215.336C164.557 215.805 164.693 216.352 164.693 216.975C164.693 217.598 164.554 218.148 164.275 218.625C164.004 219.094 163.633 219.457 163.164 219.714C162.695 219.971 162.174 220.099 161.602 220.099ZM161.602 219.219C161.961 219.219 162.299 219.135 162.614 218.966C162.929 218.797 163.182 218.544 163.373 218.207C163.571 217.87 163.67 217.459 163.67 216.975C163.67 216.491 163.575 216.08 163.384 215.743C163.193 215.406 162.944 215.156 162.636 214.995C162.328 214.826 161.994 214.742 161.635 214.742C161.268 214.742 160.931 214.826 160.623 214.995C160.322 215.156 160.08 215.406 159.897 215.743C159.714 216.08 159.622 216.491 159.622 216.975C159.622 217.466 159.71 217.881 159.886 218.218C160.069 218.555 160.311 218.808 160.612 218.977C160.913 219.138 161.243 219.219 161.602 219.219ZM169.375 220L167.01 217.338V220H166.009V211.86H167.01V216.645L169.331 213.972H170.728L167.89 216.975L170.739 220H169.375Z" fill="#5A5858"/>
<rect x="101.3" y="259.3" width="81.4" height="43.4" rx="2.7" stroke="#B132AF" stroke-opacity="0.4" stroke-width="0.6"/>
<path d="M115.231 276.333V284H114.23V276.333H115.231ZM119.874 277.862C120.607 277.862 121.201 278.086 121.656 278.533C122.111 278.973 122.338 279.611 122.338 280.447V284H121.348V280.59C121.348 279.989 121.198 279.53 120.897 279.215C120.596 278.892 120.186 278.731 119.665 278.731C119.137 278.731 118.715 278.896 118.4 279.226C118.092 279.556 117.938 280.036 117.938 280.667V284H116.937V277.972H117.938V278.83C118.136 278.522 118.404 278.284 118.741 278.115C119.086 277.946 119.463 277.862 119.874 277.862ZM126.107 284.099C125.645 284.099 125.231 284.022 124.864 283.868C124.497 283.707 124.208 283.487 123.995 283.208C123.782 282.922 123.665 282.596 123.643 282.229H124.677C124.706 282.53 124.846 282.775 125.095 282.966C125.352 283.157 125.685 283.252 126.096 283.252C126.477 283.252 126.778 283.168 126.998 282.999C127.218 282.83 127.328 282.618 127.328 282.361C127.328 282.097 127.211 281.903 126.976 281.778C126.741 281.646 126.378 281.518 125.887 281.393C125.44 281.276 125.073 281.158 124.787 281.041C124.508 280.916 124.266 280.737 124.061 280.502C123.863 280.26 123.764 279.945 123.764 279.556C123.764 279.248 123.856 278.966 124.039 278.709C124.222 278.452 124.483 278.251 124.82 278.104C125.157 277.95 125.542 277.873 125.975 277.873C126.642 277.873 127.181 278.042 127.592 278.379C128.003 278.716 128.223 279.178 128.252 279.765H127.251C127.229 279.45 127.101 279.197 126.866 279.006C126.639 278.815 126.331 278.72 125.942 278.72C125.583 278.72 125.297 278.797 125.084 278.951C124.871 279.105 124.765 279.307 124.765 279.556C124.765 279.754 124.827 279.919 124.952 280.051C125.084 280.176 125.245 280.278 125.436 280.359C125.634 280.432 125.905 280.517 126.25 280.612C126.683 280.729 127.035 280.847 127.306 280.964C127.577 281.074 127.808 281.243 127.999 281.47C128.197 281.697 128.3 281.994 128.307 282.361C128.307 282.691 128.215 282.988 128.032 283.252C127.849 283.516 127.588 283.725 127.251 283.879C126.921 284.026 126.54 284.099 126.107 284.099ZM130.941 278.797V282.35C130.941 282.643 131.003 282.852 131.128 282.977C131.253 283.094 131.469 283.153 131.777 283.153H132.514V284H131.612C131.055 284 130.637 283.872 130.358 283.615C130.079 283.358 129.94 282.937 129.94 282.35V278.797H129.159V277.972H129.94V276.454H130.941V277.972H132.514V278.797H130.941ZM133.353 280.964C133.353 280.348 133.478 279.809 133.727 279.347C133.976 278.878 134.317 278.515 134.75 278.258C135.19 278.001 135.678 277.873 136.213 277.873C136.741 277.873 137.199 277.987 137.588 278.214C137.977 278.441 138.266 278.727 138.457 279.072V277.972H139.469V284H138.457V282.878C138.259 283.23 137.962 283.523 137.566 283.758C137.177 283.985 136.723 284.099 136.202 284.099C135.667 284.099 135.183 283.967 134.75 283.703C134.317 283.439 133.976 283.069 133.727 282.592C133.478 282.115 133.353 281.573 133.353 280.964ZM138.457 280.975C138.457 280.52 138.365 280.124 138.182 279.787C137.999 279.45 137.749 279.193 137.434 279.017C137.126 278.834 136.785 278.742 136.411 278.742C136.037 278.742 135.696 278.83 135.388 279.006C135.08 279.182 134.834 279.439 134.651 279.776C134.468 280.113 134.376 280.509 134.376 280.964C134.376 281.426 134.468 281.829 134.651 282.174C134.834 282.511 135.08 282.772 135.388 282.955C135.696 283.131 136.037 283.219 136.411 283.219C136.785 283.219 137.126 283.131 137.434 282.955C137.749 282.772 137.999 282.511 138.182 282.174C138.365 281.829 138.457 281.43 138.457 280.975ZM143.646 277.873C144.167 277.873 144.622 277.987 145.01 278.214C145.406 278.441 145.7 278.727 145.89 279.072V277.972H146.902V284.132C146.902 284.682 146.785 285.17 146.55 285.595C146.316 286.028 145.978 286.365 145.538 286.607C145.106 286.849 144.6 286.97 144.02 286.97C143.228 286.97 142.568 286.783 142.04 286.409C141.512 286.035 141.201 285.525 141.105 284.88H142.095C142.205 285.247 142.433 285.54 142.777 285.76C143.122 285.987 143.536 286.101 144.02 286.101C144.57 286.101 145.018 285.929 145.362 285.584C145.714 285.239 145.89 284.755 145.89 284.132V282.867C145.692 283.219 145.399 283.512 145.01 283.747C144.622 283.982 144.167 284.099 143.646 284.099C143.111 284.099 142.623 283.967 142.183 283.703C141.751 283.439 141.41 283.069 141.16 282.592C140.911 282.115 140.786 281.573 140.786 280.964C140.786 280.348 140.911 279.809 141.16 279.347C141.41 278.878 141.751 278.515 142.183 278.258C142.623 278.001 143.111 277.873 143.646 277.873ZM145.89 280.975C145.89 280.52 145.799 280.124 145.615 279.787C145.432 279.45 145.183 279.193 144.867 279.017C144.559 278.834 144.218 278.742 143.844 278.742C143.47 278.742 143.129 278.83 142.821 279.006C142.513 279.182 142.268 279.439 142.084 279.776C141.901 280.113 141.809 280.509 141.809 280.964C141.809 281.426 141.901 281.829 142.084 282.174C142.268 282.511 142.513 282.772 142.821 282.955C143.129 283.131 143.47 283.219 143.844 283.219C144.218 283.219 144.559 283.131 144.867 282.955C145.183 282.772 145.432 282.511 145.615 282.174C145.799 281.829 145.89 281.43 145.89 280.975ZM149.595 278.951C149.771 278.606 150.02 278.339 150.343 278.148C150.673 277.957 151.073 277.862 151.542 277.862V278.896H151.278C150.156 278.896 149.595 279.505 149.595 280.722V284H148.594V277.972H149.595V278.951ZM152.324 280.964C152.324 280.348 152.448 279.809 152.698 279.347C152.947 278.878 153.288 278.515 153.721 278.258C154.161 278.001 154.648 277.873 155.184 277.873C155.712 277.873 156.17 277.987 156.559 278.214C156.947 278.441 157.237 278.727 157.428 279.072V277.972H158.44V284H157.428V282.878C157.23 283.23 156.933 283.523 156.537 283.758C156.148 283.985 155.693 284.099 155.173 284.099C154.637 284.099 154.153 283.967 153.721 283.703C153.288 283.439 152.947 283.069 152.698 282.592C152.448 282.115 152.324 281.573 152.324 280.964ZM157.428 280.975C157.428 280.52 157.336 280.124 157.153 279.787C156.969 279.45 156.72 279.193 156.405 279.017C156.097 278.834 155.756 278.742 155.382 278.742C155.008 278.742 154.667 278.83 154.359 279.006C154.051 279.182 153.805 279.439 153.622 279.776C153.438 280.113 153.347 280.509 153.347 280.964C153.347 281.426 153.438 281.829 153.622 282.174C153.805 282.511 154.051 282.772 154.359 282.955C154.667 283.131 155.008 283.219 155.382 283.219C155.756 283.219 156.097 283.131 156.405 282.955C156.72 282.772 156.969 282.511 157.153 282.174C157.336 281.829 157.428 281.43 157.428 280.975ZM167.38 277.862C167.85 277.862 168.268 277.961 168.634 278.159C169.001 278.35 169.291 278.639 169.503 279.028C169.716 279.417 169.822 279.89 169.822 280.447V284H168.832V280.59C168.832 279.989 168.682 279.53 168.381 279.215C168.088 278.892 167.688 278.731 167.182 278.731C166.662 278.731 166.247 278.9 165.939 279.237C165.631 279.567 165.477 280.047 165.477 280.678V284H164.487V280.59C164.487 279.989 164.337 279.53 164.036 279.215C163.743 278.892 163.343 278.731 162.837 278.731C162.317 278.731 161.902 278.9 161.594 279.237C161.286 279.567 161.132 280.047 161.132 280.678V284H160.131V277.972H161.132V278.841C161.33 278.526 161.594 278.284 161.924 278.115C162.262 277.946 162.632 277.862 163.035 277.862C163.541 277.862 163.989 277.976 164.377 278.203C164.766 278.43 165.056 278.764 165.246 279.204C165.415 278.779 165.694 278.449 166.082 278.214C166.471 277.979 166.904 277.862 167.38 277.862Z" fill="#5A5858"/>
<rect x="203.3" y="259.3" width="81.4" height="43.4" rx="2.7" stroke="#D2C552" stroke-opacity="0.55" stroke-width="0.6"/>
<path d="M220.519 286.077C220.013 286.077 219.559 285.989 219.155 285.813C218.759 285.63 218.448 285.38 218.22 285.065C217.993 284.742 217.876 284.372 217.868 283.954H218.935C218.972 284.313 219.119 284.618 219.375 284.867C219.639 285.109 220.021 285.23 220.519 285.23C220.996 285.23 221.37 285.113 221.641 284.878C221.92 284.636 222.059 284.328 222.059 283.954C222.059 283.661 221.979 283.422 221.817 283.239C221.656 283.056 221.454 282.916 221.212 282.821C220.97 282.726 220.644 282.623 220.233 282.513C219.727 282.381 219.32 282.249 219.012 282.117C218.712 281.985 218.451 281.78 218.231 281.501C218.019 281.215 217.912 280.834 217.912 280.357C217.912 279.939 218.019 279.569 218.231 279.246C218.444 278.923 218.741 278.674 219.122 278.498C219.511 278.322 219.955 278.234 220.453 278.234C221.172 278.234 221.759 278.414 222.213 278.773C222.675 279.132 222.936 279.609 222.994 280.203H221.894C221.858 279.91 221.704 279.653 221.432 279.433C221.161 279.206 220.802 279.092 220.354 279.092C219.936 279.092 219.595 279.202 219.331 279.422C219.067 279.635 218.935 279.935 218.935 280.324C218.935 280.603 219.012 280.83 219.166 281.006C219.328 281.182 219.522 281.318 219.749 281.413C219.984 281.501 220.31 281.604 220.728 281.721C221.234 281.86 221.641 282 221.949 282.139C222.257 282.271 222.521 282.48 222.741 282.766C222.961 283.045 223.071 283.426 223.071 283.91C223.071 284.284 222.972 284.636 222.774 284.966C222.576 285.296 222.283 285.564 221.894 285.769C221.506 285.974 221.047 286.077 220.519 286.077ZM227.481 279.862C228.215 279.862 228.809 280.086 229.263 280.533C229.718 280.973 229.945 281.611 229.945 282.447V286H228.955V282.59C228.955 281.989 228.805 281.53 228.504 281.215C228.204 280.892 227.793 280.731 227.272 280.731C226.744 280.731 226.323 280.896 226.007 281.226C225.699 281.556 225.545 282.036 225.545 282.667V286H224.544V279.972H225.545V280.83C225.743 280.522 226.011 280.284 226.348 280.115C226.693 279.946 227.071 279.862 227.481 279.862ZM231.206 282.964C231.206 282.348 231.331 281.809 231.58 281.347C231.83 280.878 232.171 280.515 232.603 280.258C233.043 280.001 233.531 279.873 234.066 279.873C234.594 279.873 235.053 279.987 235.441 280.214C235.83 280.441 236.12 280.727 236.31 281.072V279.972H237.322V286H236.31V284.878C236.112 285.23 235.815 285.523 235.419 285.758C235.031 285.985 234.576 286.099 234.055 286.099C233.52 286.099 233.036 285.967 232.603 285.703C232.171 285.439 231.83 285.069 231.58 284.592C231.331 284.115 231.206 283.573 231.206 282.964ZM236.31 282.975C236.31 282.52 236.219 282.124 236.035 281.787C235.852 281.45 235.603 281.193 235.287 281.017C234.979 280.834 234.638 280.742 234.264 280.742C233.89 280.742 233.549 280.83 233.241 281.006C232.933 281.182 232.688 281.439 232.504 281.776C232.321 282.113 232.229 282.509 232.229 282.964C232.229 283.426 232.321 283.829 232.504 284.174C232.688 284.511 232.933 284.772 233.241 284.955C233.549 285.131 233.89 285.219 234.264 285.219C234.638 285.219 234.979 285.131 235.287 284.955C235.603 284.772 235.852 284.511 236.035 284.174C236.219 283.829 236.31 283.43 236.31 282.975ZM240.015 281.083C240.213 280.738 240.506 280.452 240.895 280.225C241.291 279.99 241.749 279.873 242.27 279.873C242.805 279.873 243.289 280.001 243.722 280.258C244.162 280.515 244.507 280.878 244.756 281.347C245.005 281.809 245.13 282.348 245.13 282.964C245.13 283.573 245.005 284.115 244.756 284.592C244.507 285.069 244.162 285.439 243.722 285.703C243.289 285.967 242.805 286.099 242.27 286.099C241.757 286.099 241.302 285.985 240.906 285.758C240.517 285.523 240.22 285.234 240.015 284.889V288.86H239.014V279.972H240.015V281.083ZM244.107 282.964C244.107 282.509 244.015 282.113 243.832 281.776C243.649 281.439 243.399 281.182 243.084 281.006C242.776 280.83 242.435 280.742 242.061 280.742C241.694 280.742 241.353 280.834 241.038 281.017C240.73 281.193 240.481 281.453 240.29 281.798C240.107 282.135 240.015 282.528 240.015 282.975C240.015 283.43 240.107 283.829 240.29 284.174C240.481 284.511 240.73 284.772 241.038 284.955C241.353 285.131 241.694 285.219 242.061 285.219C242.435 285.219 242.776 285.131 243.084 284.955C243.399 284.772 243.649 284.511 243.832 284.174C244.015 283.829 244.107 283.426 244.107 282.964ZM246.074 282.975C246.074 282.352 246.198 281.809 246.448 281.347C246.697 280.878 247.042 280.515 247.482 280.258C247.929 280.001 248.439 279.873 249.011 279.873C249.751 279.873 250.36 280.053 250.837 280.412C251.321 280.771 251.64 281.27 251.794 281.908H250.716C250.613 281.541 250.411 281.252 250.111 281.039C249.817 280.826 249.451 280.72 249.011 280.72C248.439 280.72 247.977 280.918 247.625 281.314C247.273 281.703 247.097 282.256 247.097 282.975C247.097 283.701 247.273 284.262 247.625 284.658C247.977 285.054 248.439 285.252 249.011 285.252C249.451 285.252 249.817 285.149 250.111 284.944C250.404 284.739 250.606 284.445 250.716 284.064H251.794C251.632 284.68 251.31 285.175 250.826 285.549C250.342 285.916 249.737 286.099 249.011 286.099C248.439 286.099 247.929 285.971 247.482 285.714C247.042 285.457 246.697 285.094 246.448 284.625C246.198 284.156 246.074 283.606 246.074 282.975ZM256.121 279.862C256.576 279.862 256.987 279.961 257.353 280.159C257.72 280.35 258.006 280.639 258.211 281.028C258.424 281.417 258.53 281.89 258.53 282.447V286H257.54V282.59C257.54 281.989 257.39 281.53 257.089 281.215C256.789 280.892 256.378 280.731 255.857 280.731C255.329 280.731 254.908 280.896 254.592 281.226C254.284 281.556 254.13 282.036 254.13 282.667V286H253.129V277.86H254.13V280.83C254.328 280.522 254.6 280.284 254.944 280.115C255.296 279.946 255.689 279.862 256.121 279.862ZM259.791 282.964C259.791 282.348 259.916 281.809 260.165 281.347C260.415 280.878 260.756 280.515 261.188 280.258C261.628 280.001 262.116 279.873 262.651 279.873C263.179 279.873 263.638 279.987 264.026 280.214C264.415 280.441 264.705 280.727 264.895 281.072V279.972H265.907V286H264.895V284.878C264.697 285.23 264.4 285.523 264.004 285.758C263.616 285.985 263.161 286.099 262.64 286.099C262.105 286.099 261.621 285.967 261.188 285.703C260.756 285.439 260.415 285.069 260.165 284.592C259.916 284.115 259.791 283.573 259.791 282.964ZM264.895 282.975C264.895 282.52 264.804 282.124 264.62 281.787C264.437 281.45 264.188 281.193 263.872 281.017C263.564 280.834 263.223 280.742 262.849 280.742C262.475 280.742 262.134 280.83 261.826 281.006C261.518 281.182 261.273 281.439 261.089 281.776C260.906 282.113 260.814 282.509 260.814 282.964C260.814 283.426 260.906 283.829 261.089 284.174C261.273 284.511 261.518 284.772 261.826 284.955C262.134 285.131 262.475 285.219 262.849 285.219C263.223 285.219 263.564 285.131 263.872 284.955C264.188 284.772 264.437 284.511 264.62 284.174C264.804 283.829 264.895 283.43 264.895 282.975ZM268.82 280.797V284.35C268.82 284.643 268.882 284.852 269.007 284.977C269.132 285.094 269.348 285.153 269.656 285.153H270.393V286H269.491C268.934 286 268.516 285.872 268.237 285.615C267.958 285.358 267.819 284.937 267.819 284.35V280.797H267.038V279.972H267.819V278.454H268.82V279.972H270.393V280.797H268.82Z" fill="#5A5858"/>
<rect x="101.3" y="323.3" width="81.4" height="43.4" rx="2.7" stroke="#2877B5" stroke-opacity="0.4" stroke-width="0.6"/>
<path d="M122.273 350.186H124.957V351H121.272V343.333H122.273V350.186ZM126.537 343.993C126.346 343.993 126.185 343.927 126.053 343.795C125.921 343.663 125.855 343.502 125.855 343.311C125.855 343.12 125.921 342.959 126.053 342.827C126.185 342.695 126.346 342.629 126.537 342.629C126.72 342.629 126.874 342.695 126.999 342.827C127.131 342.959 127.197 343.12 127.197 343.311C127.197 343.502 127.131 343.663 126.999 343.795C126.874 343.927 126.72 343.993 126.537 343.993ZM127.021 344.972V351H126.02V344.972H127.021ZM131.664 344.862C132.397 344.862 132.991 345.086 133.446 345.533C133.901 345.973 134.128 346.611 134.128 347.447V351H133.138V347.59C133.138 346.989 132.988 346.53 132.687 346.215C132.386 345.892 131.976 345.731 131.455 345.731C130.927 345.731 130.505 345.896 130.19 346.226C129.882 346.556 129.728 347.036 129.728 347.667V351H128.727V344.972H129.728V345.83C129.926 345.522 130.194 345.284 130.531 345.115C130.876 344.946 131.253 344.862 131.664 344.862ZM139.129 351L136.764 348.338V351H135.763V342.86H136.764V347.645L139.085 344.972H140.482L137.644 347.975L140.493 351H139.129ZM146.924 347.755C146.924 347.946 146.913 348.147 146.891 348.36H142.073C142.11 348.954 142.311 349.42 142.678 349.757C143.052 350.087 143.503 350.252 144.031 350.252C144.464 350.252 144.823 350.153 145.109 349.955C145.402 349.75 145.608 349.478 145.725 349.141H146.803C146.642 349.72 146.319 350.193 145.835 350.56C145.351 350.919 144.75 351.099 144.031 351.099C143.459 351.099 142.946 350.971 142.491 350.714C142.044 350.457 141.692 350.094 141.435 349.625C141.178 349.148 141.05 348.598 141.05 347.975C141.05 347.352 141.175 346.805 141.424 346.336C141.673 345.867 142.022 345.507 142.469 345.258C142.924 345.001 143.444 344.873 144.031 344.873C144.603 344.873 145.109 344.998 145.549 345.247C145.989 345.496 146.326 345.841 146.561 346.281C146.803 346.714 146.924 347.205 146.924 347.755ZM145.89 347.546C145.89 347.165 145.806 346.838 145.637 346.567C145.468 346.288 145.237 346.079 144.944 345.94C144.658 345.793 144.339 345.72 143.987 345.72C143.481 345.72 143.048 345.881 142.689 346.204C142.337 346.527 142.135 346.974 142.084 347.546H145.89ZM147.871 347.964C147.871 347.348 147.996 346.809 148.245 346.347C148.495 345.878 148.836 345.515 149.268 345.258C149.708 345.001 150.2 344.873 150.742 344.873C151.212 344.873 151.648 344.983 152.051 345.203C152.455 345.416 152.763 345.698 152.975 346.05V342.86H153.987V351H152.975V349.867C152.777 350.226 152.484 350.523 152.095 350.758C151.707 350.985 151.252 351.099 150.731 351.099C150.196 351.099 149.708 350.967 149.268 350.703C148.836 350.439 148.495 350.069 148.245 349.592C147.996 349.115 147.871 348.573 147.871 347.964ZM152.975 347.975C152.975 347.52 152.884 347.124 152.7 346.787C152.517 346.45 152.268 346.193 151.952 346.017C151.644 345.834 151.303 345.742 150.929 345.742C150.555 345.742 150.214 345.83 149.906 346.006C149.598 346.182 149.353 346.439 149.169 346.776C148.986 347.113 148.894 347.509 148.894 347.964C148.894 348.426 148.986 348.829 149.169 349.174C149.353 349.511 149.598 349.772 149.906 349.955C150.214 350.131 150.555 350.219 150.929 350.219C151.303 350.219 151.644 350.131 151.952 349.955C152.268 349.772 152.517 349.511 152.7 349.174C152.884 348.829 152.975 348.43 152.975 347.975ZM156.68 343.333V351H155.679V343.333H156.68ZM161.323 344.862C162.056 344.862 162.65 345.086 163.105 345.533C163.56 345.973 163.787 346.611 163.787 347.447V351H162.797V347.59C162.797 346.989 162.647 346.53 162.346 346.215C162.045 345.892 161.635 345.731 161.114 345.731C160.586 345.731 160.164 345.896 159.849 346.226C159.541 346.556 159.387 347.036 159.387 347.667V351H158.386V344.972H159.387V345.83C159.585 345.522 159.853 345.284 160.19 345.115C160.535 344.946 160.912 344.862 161.323 344.862Z" fill="#5A5858"/>
<rect x="203.3" y="323.3" width="81.4" height="43.4" rx="2.7" stroke="#DF3E7B" stroke-opacity="0.4" stroke-width="0.6"/>
<path d="M224.653 347.964C224.653 347.348 224.778 346.809 225.027 346.347C225.277 345.878 225.618 345.515 226.05 345.258C226.49 345.001 226.982 344.873 227.524 344.873C227.994 344.873 228.43 344.983 228.833 345.203C229.237 345.416 229.545 345.698 229.757 346.05V342.86H230.769V351H229.757V349.867C229.559 350.226 229.266 350.523 228.877 350.758C228.489 350.985 228.034 351.099 227.513 351.099C226.978 351.099 226.49 350.967 226.05 350.703C225.618 350.439 225.277 350.069 225.027 349.592C224.778 349.115 224.653 348.573 224.653 347.964ZM229.757 347.975C229.757 347.52 229.666 347.124 229.482 346.787C229.299 346.45 229.05 346.193 228.734 346.017C228.426 345.834 228.085 345.742 227.711 345.742C227.337 345.742 226.996 345.83 226.688 346.006C226.38 346.182 226.135 346.439 225.951 346.776C225.768 347.113 225.676 347.509 225.676 347.964C225.676 348.426 225.768 348.829 225.951 349.174C226.135 349.511 226.38 349.772 226.688 349.955C226.996 350.131 227.337 350.219 227.711 350.219C228.085 350.219 228.426 350.131 228.734 349.955C229.05 349.772 229.299 349.511 229.482 349.174C229.666 348.829 229.757 348.43 229.757 347.975ZM233.462 345.951C233.638 345.606 233.887 345.339 234.21 345.148C234.54 344.957 234.939 344.862 235.409 344.862V345.896H235.145C234.023 345.896 233.462 346.505 233.462 347.722V351H232.461V344.972H233.462V345.951ZM237.081 343.993C236.891 343.993 236.729 343.927 236.597 343.795C236.465 343.663 236.399 343.502 236.399 343.311C236.399 343.12 236.465 342.959 236.597 342.827C236.729 342.695 236.891 342.629 237.081 342.629C237.265 342.629 237.419 342.695 237.543 342.827C237.675 342.959 237.741 343.12 237.741 343.311C237.741 343.502 237.675 343.663 237.543 343.795C237.419 343.927 237.265 343.993 237.081 343.993ZM237.565 344.972V351H236.564V344.972H237.565ZM240.272 346.094C240.478 345.735 240.778 345.441 241.174 345.214C241.57 344.987 242.021 344.873 242.527 344.873C243.07 344.873 243.558 345.001 243.99 345.258C244.423 345.515 244.764 345.878 245.013 346.347C245.263 346.809 245.387 347.348 245.387 347.964C245.387 348.573 245.263 349.115 245.013 349.592C244.764 350.069 244.419 350.439 243.979 350.703C243.547 350.967 243.063 351.099 242.527 351.099C242.007 351.099 241.548 350.985 241.152 350.758C240.764 350.531 240.47 350.241 240.272 349.889V351H239.271V342.86H240.272V346.094ZM244.364 347.964C244.364 347.509 244.273 347.113 244.089 346.776C243.906 346.439 243.657 346.182 243.341 346.006C243.033 345.83 242.692 345.742 242.318 345.742C241.952 345.742 241.611 345.834 241.295 346.017C240.987 346.193 240.738 346.453 240.547 346.798C240.364 347.135 240.272 347.528 240.272 347.975C240.272 348.43 240.364 348.829 240.547 349.174C240.738 349.511 240.987 349.772 241.295 349.955C241.611 350.131 241.952 350.219 242.318 350.219C242.692 350.219 243.033 350.131 243.341 349.955C243.657 349.772 243.906 349.511 244.089 349.174C244.273 348.829 244.364 348.426 244.364 347.964ZM247.706 346.094C247.911 345.735 248.212 345.441 248.608 345.214C249.004 344.987 249.455 344.873 249.961 344.873C250.504 344.873 250.991 345.001 251.424 345.258C251.857 345.515 252.198 345.878 252.447 346.347C252.696 346.809 252.821 347.348 252.821 347.964C252.821 348.573 252.696 349.115 252.447 349.592C252.198 350.069 251.853 350.439 251.413 350.703C250.98 350.967 250.496 351.099 249.961 351.099C249.44 351.099 248.982 350.985 248.586 350.758C248.197 350.531 247.904 350.241 247.706 349.889V351H246.705V342.86H247.706V346.094ZM251.798 347.964C251.798 347.509 251.706 347.113 251.523 346.776C251.34 346.439 251.09 346.182 250.775 346.006C250.467 345.83 250.126 345.742 249.752 345.742C249.385 345.742 249.044 345.834 248.729 346.017C248.421 346.193 248.172 346.453 247.981 346.798C247.798 347.135 247.706 347.528 247.706 347.975C247.706 348.43 247.798 348.829 247.981 349.174C248.172 349.511 248.421 349.772 248.729 349.955C249.044 350.131 249.385 350.219 249.752 350.219C250.126 350.219 250.467 350.131 250.775 349.955C251.09 349.772 251.34 349.511 251.523 349.174C251.706 348.829 251.798 348.426 251.798 347.964ZM255.14 342.86V351H254.139V342.86H255.14ZM262.346 347.755C262.346 347.946 262.335 348.147 262.313 348.36H257.495C257.531 348.954 257.733 349.42 258.1 349.757C258.474 350.087 258.925 350.252 259.453 350.252C259.885 350.252 260.245 350.153 260.531 349.955C260.824 349.75 261.029 349.478 261.147 349.141H262.225C262.063 349.72 261.741 350.193 261.257 350.56C260.773 350.919 260.171 351.099 259.453 351.099C258.881 351.099 258.367 350.971 257.913 350.714C257.465 350.457 257.113 350.094 256.857 349.625C256.6 349.148 256.472 348.598 256.472 347.975C256.472 347.352 256.596 346.805 256.846 346.336C257.095 345.867 257.443 345.507 257.891 345.258C258.345 345.001 258.866 344.873 259.453 344.873C260.025 344.873 260.531 344.998 260.971 345.247C261.411 345.496 261.748 345.841 261.983 346.281C262.225 346.714 262.346 347.205 262.346 347.755ZM261.312 347.546C261.312 347.165 261.227 346.838 261.059 346.567C260.89 346.288 260.659 346.079 260.366 345.94C260.08 345.793 259.761 345.72 259.409 345.72C258.903 345.72 258.47 345.881 258.111 346.204C257.759 346.527 257.557 346.974 257.506 347.546H261.312Z" fill="#5A5858"/>
<rect x="203.3" y="195.3" width="81.4" height="43.4" rx="2.7" stroke="#3AAAE1" stroke-opacity="0.4" stroke-width="0.6"/>
<path d="M231.756 212.333V213.147H229.666V220H228.665V213.147H226.564V212.333H231.756ZM241.018 213.972L239.137 220H238.103L236.651 215.215L235.199 220H234.165L232.273 213.972H233.296L234.682 219.032L236.178 213.972H237.201L238.664 219.043L240.028 213.972H241.018ZM242.529 212.993C242.338 212.993 242.177 212.927 242.045 212.795C241.913 212.663 241.847 212.502 241.847 212.311C241.847 212.12 241.913 211.959 242.045 211.827C242.177 211.695 242.338 211.629 242.529 211.629C242.712 211.629 242.866 211.695 242.991 211.827C243.123 211.959 243.189 212.12 243.189 212.311C243.189 212.502 243.123 212.663 242.991 212.795C242.866 212.927 242.712 212.993 242.529 212.993ZM243.013 213.972V220H242.012V213.972H243.013ZM245.94 214.797V218.35C245.94 218.643 246.002 218.852 246.127 218.977C246.251 219.094 246.468 219.153 246.776 219.153H247.513V220H246.611C246.053 220 245.635 219.872 245.357 219.615C245.078 219.358 244.939 218.937 244.939 218.35V214.797H244.158V213.972H244.939V212.454H245.94V213.972H247.513V214.797H245.94ZM249.946 214.797V218.35C249.946 218.643 250.009 218.852 250.133 218.977C250.258 219.094 250.474 219.153 250.782 219.153H251.519V220H250.617C250.06 220 249.642 219.872 249.363 219.615C249.085 219.358 248.945 218.937 248.945 218.35V214.797H248.164V213.972H248.945V212.454H249.946V213.972H251.519V214.797H249.946ZM258.232 216.755C258.232 216.946 258.221 217.147 258.199 217.36H253.381C253.418 217.954 253.62 218.42 253.986 218.757C254.36 219.087 254.811 219.252 255.339 219.252C255.772 219.252 256.131 219.153 256.417 218.955C256.711 218.75 256.916 218.478 257.033 218.141H258.111C257.95 218.72 257.627 219.193 257.143 219.56C256.659 219.919 256.058 220.099 255.339 220.099C254.767 220.099 254.254 219.971 253.799 219.714C253.352 219.457 253 219.094 252.743 218.625C252.487 218.148 252.358 217.598 252.358 216.975C252.358 216.352 252.483 215.805 252.732 215.336C252.982 214.867 253.33 214.507 253.777 214.258C254.232 214.001 254.753 213.873 255.339 213.873C255.911 213.873 256.417 213.998 256.857 214.247C257.297 214.496 257.635 214.841 257.869 215.281C258.111 215.714 258.232 216.205 258.232 216.755ZM257.198 216.546C257.198 216.165 257.114 215.838 256.945 215.567C256.777 215.288 256.546 215.079 256.252 214.94C255.966 214.793 255.647 214.72 255.295 214.72C254.789 214.72 254.357 214.881 253.997 215.204C253.645 215.527 253.444 215.974 253.392 216.546H257.198ZM260.555 214.951C260.731 214.606 260.98 214.339 261.303 214.148C261.633 213.957 262.032 213.862 262.502 213.862V214.896H262.238C261.116 214.896 260.555 215.505 260.555 216.722V220H259.554V213.972H260.555V214.951Z" fill="#5A5858"/>
<path d="M101.473 166.161C101.473 165.413 101.642 164.742 101.979 164.148C102.316 163.547 102.775 163.077 103.354 162.74C103.941 162.403 104.59 162.234 105.301 162.234C106.137 162.234 106.867 162.436 107.49 162.839C108.113 163.242 108.568 163.814 108.854 164.555H107.655C107.442 164.093 107.134 163.737 106.731 163.488C106.335 163.239 105.858 163.114 105.301 163.114C104.766 163.114 104.285 163.239 103.86 163.488C103.435 163.737 103.101 164.093 102.859 164.555C102.617 165.01 102.496 165.545 102.496 166.161C102.496 166.77 102.617 167.305 102.859 167.767C103.101 168.222 103.435 168.574 103.86 168.823C104.285 169.072 104.766 169.197 105.301 169.197C105.858 169.197 106.335 169.076 106.731 168.834C107.134 168.585 107.442 168.229 107.655 167.767H108.854C108.568 168.5 108.113 169.069 107.49 169.472C106.867 169.868 106.137 170.066 105.301 170.066C104.59 170.066 103.941 169.901 103.354 169.571C102.775 169.234 102.316 168.768 101.979 168.174C101.642 167.58 101.473 166.909 101.473 166.161ZM113.336 163.862C113.791 163.862 114.201 163.961 114.568 164.159C114.935 164.35 115.221 164.639 115.426 165.028C115.639 165.417 115.745 165.89 115.745 166.447V170H114.755V166.59C114.755 165.989 114.605 165.53 114.304 165.215C114.003 164.892 113.593 164.731 113.072 164.731C112.544 164.731 112.122 164.896 111.807 165.226C111.499 165.556 111.345 166.036 111.345 166.667V170H110.344V161.86H111.345V164.83C111.543 164.522 111.814 164.284 112.159 164.115C112.511 163.946 112.903 163.862 113.336 163.862ZM120.009 170.099C119.445 170.099 118.931 169.971 118.469 169.714C118.015 169.457 117.655 169.094 117.391 168.625C117.135 168.148 117.006 167.598 117.006 166.975C117.006 166.359 117.138 165.816 117.402 165.347C117.674 164.87 118.04 164.507 118.502 164.258C118.964 164.001 119.481 163.873 120.053 163.873C120.625 163.873 121.142 164.001 121.604 164.258C122.066 164.507 122.429 164.867 122.693 165.336C122.965 165.805 123.1 166.352 123.1 166.975C123.1 167.598 122.961 168.148 122.682 168.625C122.411 169.094 122.041 169.457 121.571 169.714C121.102 169.971 120.581 170.099 120.009 170.099ZM120.009 169.219C120.369 169.219 120.706 169.135 121.021 168.966C121.337 168.797 121.59 168.544 121.78 168.207C121.978 167.87 122.077 167.459 122.077 166.975C122.077 166.491 121.982 166.08 121.791 165.743C121.601 165.406 121.351 165.156 121.043 164.995C120.735 164.826 120.402 164.742 120.042 164.742C119.676 164.742 119.338 164.826 119.03 164.995C118.73 165.156 118.488 165.406 118.304 165.743C118.121 166.08 118.029 166.491 118.029 166.975C118.029 167.466 118.117 167.881 118.293 168.218C118.477 168.555 118.719 168.808 119.019 168.977C119.32 169.138 119.65 169.219 120.009 169.219ZM127.045 170.099C126.481 170.099 125.967 169.971 125.505 169.714C125.051 169.457 124.691 169.094 124.427 168.625C124.171 168.148 124.042 167.598 124.042 166.975C124.042 166.359 124.174 165.816 124.438 165.347C124.71 164.87 125.076 164.507 125.538 164.258C126 164.001 126.517 163.873 127.089 163.873C127.661 163.873 128.178 164.001 128.64 164.258C129.102 164.507 129.465 164.867 129.729 165.336C130.001 165.805 130.136 166.352 130.136 166.975C130.136 167.598 129.997 168.148 129.718 168.625C129.447 169.094 129.077 169.457 128.607 169.714C128.138 169.971 127.617 170.099 127.045 170.099ZM127.045 169.219C127.405 169.219 127.742 169.135 128.057 168.966C128.373 168.797 128.626 168.544 128.816 168.207C129.014 167.87 129.113 167.459 129.113 166.975C129.113 166.491 129.018 166.08 128.827 165.743C128.637 165.406 128.387 165.156 128.079 164.995C127.771 164.826 127.438 164.742 127.078 164.742C126.712 164.742 126.374 164.826 126.066 164.995C125.766 165.156 125.524 165.406 125.34 165.743C125.157 166.08 125.065 166.491 125.065 166.975C125.065 167.466 125.153 167.881 125.329 168.218C125.513 168.555 125.755 168.808 126.055 168.977C126.356 169.138 126.686 169.219 127.045 169.219ZM133.586 170.099C133.124 170.099 132.71 170.022 132.343 169.868C131.977 169.707 131.687 169.487 131.474 169.208C131.262 168.922 131.144 168.596 131.122 168.229H132.156C132.186 168.53 132.325 168.775 132.574 168.966C132.831 169.157 133.165 169.252 133.575 169.252C133.957 169.252 134.257 169.168 134.477 168.999C134.697 168.83 134.807 168.618 134.807 168.361C134.807 168.097 134.69 167.903 134.455 167.778C134.221 167.646 133.858 167.518 133.366 167.393C132.919 167.276 132.552 167.158 132.266 167.041C131.988 166.916 131.746 166.737 131.54 166.502C131.342 166.26 131.243 165.945 131.243 165.556C131.243 165.248 131.335 164.966 131.518 164.709C131.702 164.452 131.962 164.251 132.299 164.104C132.637 163.95 133.022 163.873 133.454 163.873C134.122 163.873 134.661 164.042 135.071 164.379C135.482 164.716 135.702 165.178 135.731 165.765H134.73C134.708 165.45 134.58 165.197 134.345 165.006C134.118 164.815 133.81 164.72 133.421 164.72C133.062 164.72 132.776 164.797 132.563 164.951C132.351 165.105 132.244 165.307 132.244 165.556C132.244 165.754 132.307 165.919 132.431 166.051C132.563 166.176 132.725 166.278 132.915 166.359C133.113 166.432 133.385 166.517 133.729 166.612C134.162 166.729 134.514 166.847 134.785 166.964C135.057 167.074 135.288 167.243 135.478 167.47C135.676 167.697 135.779 167.994 135.786 168.361C135.786 168.691 135.695 168.988 135.511 169.252C135.328 169.516 135.068 169.725 134.73 169.879C134.4 170.026 134.019 170.099 133.586 170.099ZM142.7 166.755C142.7 166.946 142.689 167.147 142.667 167.36H137.849C137.885 167.954 138.087 168.42 138.454 168.757C138.828 169.087 139.279 169.252 139.807 169.252C140.239 169.252 140.599 169.153 140.885 168.955C141.178 168.75 141.383 168.478 141.501 168.141H142.579C142.417 168.72 142.095 169.193 141.611 169.56C141.127 169.919 140.525 170.099 139.807 170.099C139.235 170.099 138.721 169.971 138.267 169.714C137.819 169.457 137.467 169.094 137.211 168.625C136.954 168.148 136.826 167.598 136.826 166.975C136.826 166.352 136.95 165.805 137.2 165.336C137.449 164.867 137.797 164.507 138.245 164.258C138.699 164.001 139.22 163.873 139.807 163.873C140.379 163.873 140.885 163.998 141.325 164.247C141.765 164.496 142.102 164.841 142.337 165.281C142.579 165.714 142.7 166.205 142.7 166.755ZM141.666 166.546C141.666 166.165 141.581 165.838 141.413 165.567C141.244 165.288 141.013 165.079 140.72 164.94C140.434 164.793 140.115 164.72 139.763 164.72C139.257 164.72 138.824 164.881 138.465 165.204C138.113 165.527 137.911 165.974 137.86 166.546H141.666ZM151.485 168.295H148.141L147.525 170H146.469L149.241 162.377H150.396L153.157 170H152.101L151.485 168.295ZM151.199 167.481L149.813 163.609L148.427 167.481H151.199ZM155.367 165.083C155.565 164.738 155.858 164.452 156.247 164.225C156.643 163.99 157.101 163.873 157.622 163.873C158.157 163.873 158.641 164.001 159.074 164.258C159.514 164.515 159.858 164.878 160.108 165.347C160.357 165.809 160.482 166.348 160.482 166.964C160.482 167.573 160.357 168.115 160.108 168.592C159.858 169.069 159.514 169.439 159.074 169.703C158.641 169.967 158.157 170.099 157.622 170.099C157.108 170.099 156.654 169.985 156.258 169.758C155.869 169.523 155.572 169.234 155.367 168.889V172.86H154.366V163.972H155.367V165.083ZM159.459 166.964C159.459 166.509 159.367 166.113 159.184 165.776C159 165.439 158.751 165.182 158.436 165.006C158.128 164.83 157.787 164.742 157.413 164.742C157.046 164.742 156.705 164.834 156.39 165.017C156.082 165.193 155.832 165.453 155.642 165.798C155.458 166.135 155.367 166.528 155.367 166.975C155.367 167.43 155.458 167.829 155.642 168.174C155.832 168.511 156.082 168.772 156.39 168.955C156.705 169.131 157.046 169.219 157.413 169.219C157.787 169.219 158.128 169.131 158.436 168.955C158.751 168.772 159 168.511 159.184 168.174C159.367 167.829 159.459 167.426 159.459 166.964ZM162.8 165.083C162.998 164.738 163.291 164.452 163.68 164.225C164.076 163.99 164.534 163.873 165.055 163.873C165.59 163.873 166.074 164.001 166.507 164.258C166.947 164.515 167.292 164.878 167.541 165.347C167.79 165.809 167.915 166.348 167.915 166.964C167.915 167.573 167.79 168.115 167.541 168.592C167.292 169.069 166.947 169.439 166.507 169.703C166.074 169.967 165.59 170.099 165.055 170.099C164.542 170.099 164.087 169.985 163.691 169.758C163.302 169.523 163.005 169.234 162.8 168.889V172.86H161.799V163.972H162.8V165.083ZM166.892 166.964C166.892 166.509 166.8 166.113 166.617 165.776C166.434 165.439 166.184 165.182 165.869 165.006C165.561 164.83 165.22 164.742 164.846 164.742C164.479 164.742 164.138 164.834 163.823 165.017C163.515 165.193 163.266 165.453 163.075 165.798C162.892 166.135 162.8 166.528 162.8 166.975C162.8 167.43 162.892 167.829 163.075 168.174C163.266 168.511 163.515 168.772 163.823 168.955C164.138 169.131 164.479 169.219 164.846 169.219C165.22 169.219 165.561 169.131 165.869 168.955C166.184 168.772 166.434 168.511 166.617 168.174C166.8 167.829 166.892 167.426 166.892 166.964ZM171.367 170.099C170.905 170.099 170.49 170.022 170.124 169.868C169.757 169.707 169.467 169.487 169.255 169.208C169.042 168.922 168.925 168.596 168.903 168.229H169.937C169.966 168.53 170.105 168.775 170.355 168.966C170.611 169.157 170.945 169.252 171.356 169.252C171.737 169.252 172.038 169.168 172.258 168.999C172.478 168.83 172.588 168.618 172.588 168.361C172.588 168.097 172.47 167.903 172.236 167.778C172.001 167.646 171.638 167.518 171.147 167.393C170.699 167.276 170.333 167.158 170.047 167.041C169.768 166.916 169.526 166.737 169.321 166.502C169.123 166.26 169.024 165.945 169.024 165.556C169.024 165.248 169.115 164.966 169.299 164.709C169.482 164.452 169.742 164.251 170.08 164.104C170.417 163.95 170.802 163.873 171.235 163.873C171.902 163.873 172.441 164.042 172.852 164.379C173.262 164.716 173.482 165.178 173.512 165.765H172.511C172.489 165.45 172.36 165.197 172.126 165.006C171.898 164.815 171.59 164.72 171.202 164.72C170.842 164.72 170.556 164.797 170.344 164.951C170.131 165.105 170.025 165.307 170.025 165.556C170.025 165.754 170.087 165.919 170.212 166.051C170.344 166.176 170.505 166.278 170.696 166.359C170.894 166.432 171.165 166.517 171.51 166.612C171.942 166.729 172.294 166.847 172.566 166.964C172.837 167.074 173.068 167.243 173.259 167.47C173.457 167.697 173.559 167.994 173.567 168.361C173.567 168.691 173.475 168.988 173.292 169.252C173.108 169.516 172.848 169.725 172.511 169.879C172.181 170.026 171.799 170.099 171.367 170.099Z" fill="black"/>
<rect x="295.326" y="171.2" width="4.67391" height="28.3733" rx="2.33695" fill="#5A5858"/>
<rect x="85" y="180.32" width="4.67391" height="28.3733" rx="2.33695" fill="#5A5858"/>
<rect x="85" y="211.733" width="4.67391" height="28.3733" rx="2.33695" fill="#5A5858"/>
</g>
<defs>
<filter id="filter0_d" x="35" y="64" width="315" height="480" filterUnits="userSpaceOnUse" color-interpolation-filters="sRGB">
<feFlood flood-opacity="0" result="BackgroundImageFix"/>
<feColorMatrix in="SourceAlpha" type="matrix" values="0 0 0 0 0 0 0 0 0 0 0 0 0 0 0 0 0 0 127 0"/>
<feOffset dy="34"/>
<feGaussianBlur stdDeviation="25"/>
<feColorMatrix type="matrix" values="0 0 0 0 0.354167 0 0 0 0 0.346788 0 0 0 0 0.346788 0 0 0 0.3 0"/>
<feBlend mode="normal" in2="BackgroundImageFix" result="effect1_dropShadow"/>
<feBlend mode="normal" in="SourceGraphic" in2="effect1_dropShadow" result="shape"/>
</filter>
</defs>
</svg>
