<svg width="504" height="551" viewBox="0 0 504 551" fill="none" xmlns="http://www.w3.org/2000/svg">
<circle cx="108" cy="443" r="106.5" fill="white" stroke="#D67676" stroke-width="3"/>
<circle cx="356" cy="148" r="146" fill="white" stroke="#27ACB4" stroke-width="4"/>
<g filter="url(#filter0_d)">
<path d="M90.3041 90C90.3041 85.8579 93.6619 82.5 97.8041 82.5H288.13C292.272 82.5 295.63 85.8579 295.63 90V450C295.63 454.142 292.272 457.5 288.13 457.5H97.8041C93.6619 457.5 90.3041 454.142 90.3041 450V90Z" fill="white" stroke="#5A5858" stroke-width="5"/>
<g clip-path="url(#clip0)">
<path d="M193.517 376.225C191.835 376.225 190.47 377.589 190.47 379.272C190.615 388.445 189.437 397.287 186.954 406.129C186.607 407.363 187.227 410 189.889 410C191.219 410 192.442 409.121 192.82 407.776C194.538 401.693 196.761 391.855 196.563 379.272C196.564 377.59 195.201 376.225 193.517 376.225ZM193.408 365.85C185.631 365.841 180.204 371.825 180.312 378.683C180.407 384.769 179.835 390.859 178.614 396.78C178.273 398.428 179.334 400.042 180.981 400.381C182.637 400.72 184.239 399.662 184.581 398.014C185.894 391.655 186.507 385.118 186.405 378.588C186.353 375.294 188.934 371.924 193.318 371.943C197.293 372.003 200.573 375.16 200.633 378.985C200.731 385.085 200.276 391.215 199.286 397.209C199.01 398.867 200.135 400.437 201.795 400.711C204.33 401.134 205.198 398.794 205.296 398.201C206.347 391.849 206.827 385.352 206.727 378.89C206.615 371.806 200.641 365.956 193.408 365.85ZM179.356 363.338C178.048 362.28 176.135 362.475 175.07 363.78C171.817 367.779 170.069 372.829 170.15 377.999C170.225 382.77 169.837 387.555 168.994 392.224C168.697 393.881 169.795 395.465 171.451 395.765C174.005 396.209 174.888 393.885 174.992 393.307C175.905 388.249 176.325 383.067 176.244 377.904C176.184 374.11 177.412 370.556 179.799 367.624C180.859 366.319 180.661 364.401 179.356 363.338ZM193.253 355.425C191.297 355.373 189.334 355.608 187.441 356.056C185.805 356.445 184.792 358.085 185.178 359.724C185.566 361.36 187.209 362.368 188.845 361.988C190.248 361.656 191.698 361.509 193.162 361.519C202.738 361.663 210.647 369.327 210.793 378.604C210.868 383.413 210.63 388.267 210.085 393.03C209.894 394.702 211.094 396.214 212.765 396.405C214.887 396.652 216.003 394.896 216.139 393.725C216.716 388.674 216.966 383.592 216.887 378.509C216.689 365.973 206.087 355.616 193.253 355.425ZM225.254 370.844C224.891 369.204 223.285 368.152 221.622 368.524C219.979 368.887 218.941 370.512 219.304 372.157C219.902 374.875 219.927 376.906 219.901 379.977C219.887 381.662 221.24 383.035 222.922 383.049H222.947C224.619 383.049 225.98 381.702 225.994 380.028C226.017 377.212 226.045 374.428 225.254 370.844ZM220.161 359.327C213.978 350.517 203.861 345.164 193.097 345.003C184.237 344.896 176.042 348.162 169.947 354.26C164.06 360.154 160.888 367.984 161.02 376.313L161.005 379.039C160.955 380.721 162.278 382.125 163.96 382.173C163.989 382.176 164.021 382.176 164.051 382.176C165.692 382.176 167.046 380.868 167.094 379.218L167.115 376.216C167.009 369.551 169.547 363.285 174.26 358.57C179.18 353.644 185.856 350.995 193.008 351.098C201.825 351.228 210.113 355.612 215.177 362.827C216.143 364.205 218.041 364.534 219.419 363.571C220.796 362.603 221.128 360.703 220.161 359.327Z" fill="#A9A6A6" fill-opacity="0.76"/>
</g>
<rect x="295.326" y="171.2" width="4.67391" height="28.3733" rx="2.33695" fill="#5A5858"/>
<rect x="85" y="180.319" width="4.67391" height="28.3733" rx="2.33695" fill="#5A5858"/>
<rect x="85" y="211.733" width="4.67391" height="28.3733" rx="2.33695" fill="#5A5858"/>
</g>
<defs>
<filter id="filter0_d" x="35" y="64" width="315" height="480" filterUnits="userSpaceOnUse" color-interpolation-filters="sRGB">
<feFlood flood-opacity="0" result="BackgroundImageFix"/>
<feColorMatrix in="SourceAlpha" type="matrix" values="0 0 0 0 0 0 0 0 0 0 0 0 0 0 0 0 0 0 127 0"/>
<feOffset dy="34"/>
<feGaussianBlur stdDeviation="25"/>
<feColorMatrix type="matrix" values="0 0 0 0 0.354167 0 0 0 0 0.346788 0 0 0 0 0.346788 0 0 0 0.3 0"/>
<feBlend mode="normal" in2="BackgroundImageFix" result="effect1_dropShadow"/>
<feBlend mode="normal" in="SourceGraphic" in2="effect1_dropShadow" result="shape"/>
</filter>
<clipPath id="clip0">
<rect width="65" height="65" fill="white" transform="translate(161 345)"/>
</clipPath>
</defs>
</svg>
