<svg width="357" height="554" viewBox="0 0 357 554" fill="none" xmlns="http://www.w3.org/2000/svg">
<g filter="url(#filter0_d)">
<path d="M63.3506 18.5H294.635C298.777 18.5 302.135 21.8579 302.135 26V460C302.135 464.142 298.777 467.5 294.635 467.5H63.3506C59.2084 467.5 55.8506 464.142 55.8506 460V26C55.8506 21.8579 59.2084 18.5 63.3506 18.5Z" fill="white" stroke="#5A5858" stroke-width="5"/>
<rect x="301.284" y="124.96" width="5.58409" height="33.8986" rx="2.79205" fill="#5A5858"/>
<rect x="50" y="135.856" width="5.58409" height="33.8986" rx="2.79205" fill="#5A5858"/>
<rect x="50" y="173.387" width="5.58409" height="33.8986" rx="2.79205" fill="#5A5858"/>
<rect x="68.4209" y="365.363" width="220.707" height="61.8432" rx="30.9216" stroke="#27ACB4"/>
<ellipse cx="246.738" cy="396.486" rx="11.2484" ry="11.2484" fill="white"/>
<path d="M249.583 396.344C249.778 396.148 249.778 395.832 249.583 395.636L246.401 392.454C246.206 392.259 245.889 392.259 245.694 392.454C245.498 392.65 245.498 392.966 245.694 393.162L248.522 395.99L245.694 398.818C245.498 399.014 245.498 399.33 245.694 399.526C245.889 399.721 246.206 399.721 246.401 399.526L249.583 396.344ZM248.632 396.49H249.229V395.49H248.632V396.49Z" fill="#D67676"/>
<path d="M122.288 394.059C121.979 393.408 121.531 392.907 120.944 392.555C120.357 392.192 119.675 392.011 118.896 392.011C118.117 392.011 117.413 392.192 116.784 392.555C116.165 392.907 115.675 393.419 115.312 394.091C114.96 394.752 114.784 395.52 114.784 396.395C114.784 397.27 114.96 398.038 115.312 398.699C115.675 399.36 116.165 399.872 116.784 400.235C117.413 400.587 118.117 400.763 118.896 400.763C119.984 400.763 120.88 400.438 121.584 399.787C122.288 399.136 122.699 398.256 122.816 397.147H118.368V395.963H124.368V397.083C124.283 398 123.995 398.843 123.504 399.611C123.013 400.368 122.368 400.971 121.568 401.419C120.768 401.856 119.877 402.075 118.896 402.075C117.861 402.075 116.917 401.835 116.064 401.355C115.211 400.864 114.533 400.187 114.032 399.323C113.541 398.459 113.296 397.483 113.296 396.395C113.296 395.307 113.541 394.331 114.032 393.467C114.533 392.592 115.211 391.915 116.064 391.435C116.917 390.944 117.861 390.699 118.896 390.699C120.08 390.699 121.125 390.992 122.032 391.579C122.949 392.166 123.616 392.992 124.032 394.059H122.288ZM134.293 397.259C134.293 397.536 134.277 397.83 134.245 398.139H127.237C127.29 399.003 127.584 399.68 128.117 400.171C128.661 400.651 129.317 400.891 130.085 400.891C130.714 400.891 131.237 400.747 131.653 400.459C132.08 400.16 132.378 399.766 132.549 399.275H134.117C133.882 400.118 133.413 400.806 132.709 401.339C132.005 401.862 131.13 402.123 130.085 402.123C129.253 402.123 128.506 401.936 127.845 401.563C127.194 401.19 126.682 400.662 126.309 399.979C125.936 399.286 125.749 398.486 125.749 397.579C125.749 396.672 125.93 395.878 126.293 395.195C126.656 394.512 127.162 393.99 127.813 393.627C128.474 393.254 129.232 393.067 130.085 393.067C130.917 393.067 131.653 393.248 132.293 393.611C132.933 393.974 133.424 394.475 133.765 395.115C134.117 395.744 134.293 396.459 134.293 397.259ZM132.789 396.955C132.789 396.4 132.666 395.926 132.421 395.531C132.176 395.126 131.84 394.822 131.413 394.619C130.997 394.406 130.533 394.299 130.021 394.299C129.285 394.299 128.656 394.534 128.133 395.003C127.621 395.472 127.328 396.123 127.253 396.955H132.789ZM137.991 394.411V399.579C137.991 400.006 138.082 400.31 138.263 400.491C138.444 400.662 138.759 400.747 139.207 400.747H140.279V401.979H138.967C138.156 401.979 137.548 401.792 137.143 401.419C136.738 401.046 136.535 400.432 136.535 399.579V394.411H135.399V393.211H136.535V391.003H137.991V393.211H140.279V394.411H137.991ZM149.845 402.091C149.109 402.091 148.447 401.963 147.861 401.707C147.285 401.44 146.831 401.078 146.501 400.619C146.17 400.15 145.999 399.611 145.989 399.003H147.541C147.594 399.526 147.807 399.968 148.181 400.331C148.565 400.683 149.119 400.859 149.845 400.859C150.538 400.859 151.082 400.688 151.477 400.347C151.882 399.995 152.085 399.547 152.085 399.003C152.085 398.576 151.967 398.23 151.733 397.963C151.498 397.696 151.205 397.494 150.853 397.355C150.501 397.216 150.026 397.067 149.429 396.907C148.693 396.715 148.101 396.523 147.653 396.331C147.215 396.139 146.837 395.84 146.517 395.435C146.207 395.019 146.053 394.464 146.053 393.771C146.053 393.163 146.207 392.624 146.517 392.155C146.826 391.686 147.258 391.323 147.813 391.067C148.378 390.811 149.023 390.683 149.749 390.683C150.794 390.683 151.647 390.944 152.309 391.467C152.981 391.99 153.359 392.683 153.445 393.547H151.845C151.791 393.12 151.567 392.747 151.173 392.427C150.778 392.096 150.255 391.931 149.605 391.931C148.997 391.931 148.501 392.091 148.117 392.411C147.733 392.72 147.541 393.158 147.541 393.723C147.541 394.128 147.653 394.459 147.877 394.715C148.111 394.971 148.394 395.168 148.725 395.307C149.066 395.435 149.541 395.584 150.149 395.755C150.885 395.958 151.477 396.16 151.925 396.363C152.373 396.555 152.757 396.859 153.077 397.275C153.397 397.68 153.557 398.235 153.557 398.939C153.557 399.483 153.413 399.995 153.125 400.475C152.837 400.955 152.41 401.344 151.845 401.643C151.279 401.942 150.613 402.091 149.845 402.091ZM157.475 394.411V399.579C157.475 400.006 157.566 400.31 157.747 400.491C157.929 400.662 158.243 400.747 158.691 400.747H159.763V401.979H158.451C157.641 401.979 157.033 401.792 156.627 401.419C156.222 401.046 156.019 400.432 156.019 399.579V394.411H154.883V393.211H156.019V391.003H157.475V393.211H159.763V394.411H157.475ZM160.983 397.563C160.983 396.667 161.165 395.883 161.527 395.211C161.89 394.528 162.386 394 163.015 393.627C163.655 393.254 164.365 393.067 165.143 393.067C165.911 393.067 166.578 393.232 167.143 393.563C167.709 393.894 168.13 394.31 168.407 394.811V393.211H169.879V401.979H168.407V400.347C168.119 400.859 167.687 401.286 167.111 401.627C166.546 401.958 165.885 402.123 165.127 402.123C164.349 402.123 163.645 401.931 163.015 401.547C162.386 401.163 161.89 400.624 161.527 399.931C161.165 399.238 160.983 398.448 160.983 397.563ZM168.407 397.579C168.407 396.918 168.274 396.342 168.007 395.851C167.741 395.36 167.378 394.987 166.919 394.731C166.471 394.464 165.975 394.331 165.431 394.331C164.887 394.331 164.391 394.459 163.943 394.715C163.495 394.971 163.138 395.344 162.871 395.835C162.605 396.326 162.471 396.902 162.471 397.563C162.471 398.235 162.605 398.822 162.871 399.323C163.138 399.814 163.495 400.192 163.943 400.459C164.391 400.715 164.887 400.843 165.431 400.843C165.975 400.843 166.471 400.715 166.919 400.459C167.378 400.192 167.741 399.814 168.007 399.323C168.274 398.822 168.407 398.24 168.407 397.579ZM173.796 394.635C174.052 394.134 174.415 393.744 174.884 393.467C175.364 393.19 175.945 393.051 176.628 393.051V394.555H176.244C174.612 394.555 173.796 395.44 173.796 397.211V401.979H172.34V393.211H173.796V394.635ZM180.085 394.411V399.579C180.085 400.006 180.175 400.31 180.357 400.491C180.538 400.662 180.853 400.747 181.301 400.747H182.373V401.979H181.061C180.25 401.979 179.642 401.792 179.237 401.419C178.831 401.046 178.629 400.432 178.629 399.579V394.411H177.493V393.211H178.629V391.003H180.085V393.211H182.373V394.411H180.085ZM192.137 397.259C192.137 397.536 192.121 397.83 192.089 398.139H185.081C185.134 399.003 185.427 399.68 185.961 400.171C186.505 400.651 187.161 400.891 187.929 400.891C188.558 400.891 189.081 400.747 189.497 400.459C189.923 400.16 190.222 399.766 190.393 399.275H191.961C191.726 400.118 191.257 400.806 190.553 401.339C189.849 401.862 188.974 402.123 187.929 402.123C187.097 402.123 186.35 401.936 185.689 401.563C185.038 401.19 184.526 400.662 184.153 399.979C183.779 399.286 183.593 398.486 183.593 397.579C183.593 396.672 183.774 395.878 184.137 395.195C184.499 394.512 185.006 393.99 185.657 393.627C186.318 393.254 187.075 393.067 187.929 393.067C188.761 393.067 189.497 393.248 190.137 393.611C190.777 393.974 191.267 394.475 191.609 395.115C191.961 395.744 192.137 396.459 192.137 397.259ZM190.633 396.955C190.633 396.4 190.51 395.926 190.265 395.531C190.019 395.126 189.683 394.822 189.257 394.619C188.841 394.406 188.377 394.299 187.865 394.299C187.129 394.299 186.499 394.534 185.977 395.003C185.465 395.472 185.171 396.123 185.097 396.955H190.633ZM193.515 397.563C193.515 396.667 193.696 395.883 194.059 395.211C194.421 394.528 194.917 394 195.547 393.627C196.187 393.254 196.901 393.067 197.691 393.067C198.373 393.067 199.008 393.227 199.595 393.547C200.181 393.856 200.629 394.267 200.939 394.779V390.139H202.411V401.979H200.939V400.331C200.651 400.854 200.224 401.286 199.659 401.627C199.093 401.958 198.432 402.123 197.675 402.123C196.896 402.123 196.187 401.931 195.547 401.547C194.917 401.163 194.421 400.624 194.059 399.931C193.696 399.238 193.515 398.448 193.515 397.563ZM200.939 397.579C200.939 396.918 200.805 396.342 200.539 395.851C200.272 395.36 199.909 394.987 199.451 394.731C199.003 394.464 198.507 394.331 197.963 394.331C197.419 394.331 196.923 394.459 196.475 394.715C196.027 394.971 195.669 395.344 195.403 395.835C195.136 396.326 195.003 396.902 195.003 397.563C195.003 398.235 195.136 398.822 195.403 399.323C195.669 399.814 196.027 400.192 196.475 400.459C196.923 400.715 197.419 400.843 197.963 400.843C198.507 400.843 199.003 400.715 199.451 400.459C199.909 400.192 200.272 399.814 200.539 399.323C200.805 398.822 200.939 398.24 200.939 397.579Z" fill="#A9A6A6"/>
<path d="M143.437 205.85H134.853V214.888H131.147V193.56H144.696V196.548H134.853V202.891H143.437V205.85ZM156.269 214.888C156.112 214.585 155.976 214.092 155.859 213.409C154.726 214.59 153.339 215.181 151.698 215.181C150.107 215.181 148.808 214.727 147.802 213.819C146.796 212.911 146.293 211.788 146.293 210.45C146.293 208.76 146.918 207.466 148.168 206.568C149.428 205.66 151.225 205.206 153.559 205.206H155.741V204.166C155.741 203.345 155.512 202.691 155.053 202.203C154.594 201.705 153.896 201.456 152.958 201.456C152.148 201.456 151.484 201.661 150.966 202.071C150.448 202.471 150.19 202.984 150.19 203.609H146.63C146.63 202.74 146.918 201.929 147.494 201.177C148.07 200.416 148.852 199.82 149.838 199.39C150.834 198.96 151.942 198.746 153.163 198.746C155.019 198.746 156.498 199.214 157.602 200.152C158.705 201.08 159.272 202.388 159.301 204.078V211.226C159.301 212.652 159.501 213.79 159.901 214.639V214.888H156.269ZM152.358 212.325C153.061 212.325 153.72 212.154 154.335 211.812C154.96 211.47 155.429 211.011 155.741 210.435V207.447H153.822C152.504 207.447 151.513 207.676 150.849 208.135C150.185 208.594 149.853 209.244 149.853 210.083C149.853 210.767 150.077 211.314 150.526 211.724C150.985 212.125 151.596 212.325 152.358 212.325ZM169.54 212.339C170.429 212.339 171.166 212.081 171.752 211.563C172.338 211.045 172.65 210.406 172.69 209.644H176.044C176.005 210.63 175.697 211.553 175.121 212.413C174.545 213.262 173.764 213.936 172.777 214.434C171.791 214.932 170.727 215.181 169.584 215.181C167.367 215.181 165.609 214.463 164.311 213.028C163.012 211.592 162.362 209.61 162.362 207.081V206.714C162.362 204.302 163.007 202.374 164.296 200.928C165.585 199.473 167.343 198.746 169.569 198.746C171.454 198.746 172.987 199.297 174.169 200.401C175.36 201.495 175.985 202.935 176.044 204.722H172.69C172.65 203.814 172.338 203.067 171.752 202.481C171.176 201.895 170.439 201.602 169.54 201.602C168.388 201.602 167.499 202.022 166.874 202.862C166.249 203.692 165.932 204.957 165.922 206.656V207.227C165.922 208.946 166.23 210.23 166.845 211.08C167.47 211.919 168.368 212.339 169.54 212.339ZM183.192 195.186V199.039H185.99V201.675H183.192V210.523C183.192 211.128 183.31 211.568 183.544 211.841C183.788 212.105 184.218 212.237 184.833 212.237C185.243 212.237 185.658 212.188 186.078 212.09V214.844C185.268 215.069 184.486 215.181 183.734 215.181C181 215.181 179.633 213.672 179.633 210.655V201.675H177.025V199.039H179.633V195.186H183.192ZM192.509 214.888H188.949V199.039H192.509V214.888ZM188.73 194.922C188.73 194.375 188.901 193.921 189.242 193.56C189.594 193.199 190.092 193.018 190.736 193.018C191.381 193.018 191.879 193.199 192.231 193.56C192.582 193.921 192.758 194.375 192.758 194.922C192.758 195.459 192.582 195.909 192.231 196.27C191.879 196.622 191.381 196.797 190.736 196.797C190.092 196.797 189.594 196.622 189.242 196.27C188.901 195.909 188.73 195.459 188.73 194.922ZM195.732 206.817C195.732 205.264 196.039 203.868 196.654 202.627C197.27 201.377 198.134 200.42 199.247 199.756C200.36 199.083 201.64 198.746 203.085 198.746C205.224 198.746 206.957 199.434 208.285 200.811C209.623 202.188 210.346 204.014 210.453 206.29L210.468 207.125C210.468 208.687 210.165 210.083 209.56 211.314C208.964 212.544 208.105 213.497 206.982 214.17C205.868 214.844 204.579 215.181 203.114 215.181C200.878 215.181 199.086 214.439 197.738 212.955C196.401 211.46 195.732 209.473 195.732 206.993V206.817ZM199.291 207.125C199.291 208.755 199.628 210.035 200.302 210.962C200.976 211.88 201.913 212.339 203.114 212.339C204.316 212.339 205.248 211.871 205.912 210.933C206.586 209.996 206.923 208.624 206.923 206.817C206.923 205.215 206.576 203.946 205.883 203.008C205.199 202.071 204.267 201.602 203.085 201.602C201.923 201.602 201 202.066 200.317 202.994C199.633 203.912 199.291 205.289 199.291 207.125ZM216.781 199.039L216.884 200.87C218.056 199.454 219.594 198.746 221.498 198.746C224.799 198.746 226.479 200.635 226.537 204.415V214.888H222.978V204.62C222.978 203.614 222.758 202.872 222.318 202.393C221.889 201.905 221.181 201.661 220.194 201.661C218.759 201.661 217.69 202.31 216.986 203.609V214.888H213.427V199.039H216.781Z" fill="#5A5858"/>
</g>
<defs>
<filter id="filter0_d" x="0" y="0" width="356.868" height="554" filterUnits="userSpaceOnUse" color-interpolation-filters="sRGB">
<feFlood flood-opacity="0" result="BackgroundImageFix"/>
<feColorMatrix in="SourceAlpha" type="matrix" values="0 0 0 0 0 0 0 0 0 0 0 0 0 0 0 0 0 0 127 0"/>
<feOffset dy="34"/>
<feGaussianBlur stdDeviation="25"/>
<feColorMatrix type="matrix" values="0 0 0 0 0.354167 0 0 0 0 0.346788 0 0 0 0 0.346788 0 0 0 0.3 0"/>
<feBlend mode="normal" in2="BackgroundImageFix" result="effect1_dropShadow"/>
<feBlend mode="normal" in="SourceGraphic" in2="effect1_dropShadow" result="shape"/>
</filter>
</defs>
</svg>
