<svg width="806" height="655" viewBox="0 0 806 655" fill="none" xmlns="http://www.w3.org/2000/svg">
<g filter="url(#filter0_d)">
<rect x="246.957" y="235.894" width="5.04344" height="29.7864" rx="2.52172" fill="#5A5858"/>
<rect x="20" y="245.467" width="5.04344" height="29.7864" rx="2.52172" fill="#5A5858"/>
<rect x="20" y="278.448" width="5.04344" height="29.7864" rx="2.52172" fill="#5A5858"/>
<path d="M33.0258 142.674H239.982C244.124 142.674 247.482 146.032 247.482 150.174V529.102C247.482 533.244 244.124 536.602 239.982 536.602H33.0258C28.8836 536.602 25.5258 533.244 25.5258 529.102L25.5258 150.174C25.5258 146.032 28.8836 142.674 33.0258 142.674Z" fill="white" stroke="#5A5858" stroke-width="5"/>
<path d="M101.849 329.901H93.265V338.939H89.5589V317.611H103.109V320.6H93.265V326.942H101.849V329.901ZM114.681 338.939C114.525 338.637 114.388 338.144 114.271 337.46C113.138 338.642 111.751 339.232 110.111 339.232C108.519 339.232 107.22 338.778 106.214 337.87C105.208 336.962 104.705 335.839 104.705 334.501C104.705 332.812 105.33 331.518 106.58 330.619C107.84 329.711 109.637 329.257 111.971 329.257H114.154V328.217C114.154 327.396 113.924 326.742 113.465 326.254C113.006 325.756 112.308 325.507 111.37 325.507C110.56 325.507 109.896 325.712 109.378 326.122C108.861 326.522 108.602 327.035 108.602 327.66H105.042C105.042 326.791 105.33 325.98 105.907 325.229C106.483 324.467 107.264 323.871 108.25 323.441C109.246 323.012 110.355 322.797 111.576 322.797C113.431 322.797 114.91 323.266 116.014 324.203C117.118 325.131 117.684 326.439 117.713 328.129V335.277C117.713 336.703 117.913 337.841 118.314 338.69V338.939H114.681ZM110.77 336.376C111.473 336.376 112.132 336.205 112.747 335.863C113.372 335.521 113.841 335.062 114.154 334.486V331.498H112.235C110.916 331.498 109.925 331.728 109.261 332.187C108.597 332.646 108.265 333.295 108.265 334.135C108.265 334.818 108.49 335.365 108.939 335.775C109.398 336.176 110.008 336.376 110.77 336.376ZM127.952 336.391C128.841 336.391 129.578 336.132 130.164 335.614C130.75 335.097 131.063 334.457 131.102 333.695H134.456C134.417 334.682 134.11 335.604 133.534 336.464C132.957 337.313 132.176 337.987 131.19 338.485C130.203 338.983 129.139 339.232 127.996 339.232C125.78 339.232 124.022 338.515 122.723 337.079C121.424 335.644 120.775 333.661 120.775 331.132V330.766C120.775 328.354 121.419 326.425 122.708 324.979C123.997 323.524 125.755 322.797 127.982 322.797C129.867 322.797 131.4 323.349 132.581 324.452C133.773 325.546 134.398 326.986 134.456 328.773H131.102C131.063 327.865 130.75 327.118 130.164 326.532C129.588 325.946 128.851 325.653 127.952 325.653C126.8 325.653 125.911 326.073 125.286 326.913C124.661 327.743 124.344 329.008 124.334 330.707V331.278C124.334 332.997 124.642 334.281 125.257 335.131C125.882 335.971 126.781 336.391 127.952 336.391ZM141.605 319.237V323.09H144.403V325.727H141.605V334.574C141.605 335.18 141.722 335.619 141.956 335.893C142.201 336.156 142.63 336.288 143.245 336.288C143.656 336.288 144.071 336.239 144.491 336.142V338.896C143.68 339.12 142.899 339.232 142.147 339.232C139.412 339.232 138.045 337.724 138.045 334.706V325.727H135.438V323.09H138.045V319.237H141.605ZM150.921 338.939H147.362V323.09H150.921V338.939ZM147.142 318.974C147.142 318.427 147.313 317.973 147.655 317.611C148.006 317.25 148.504 317.069 149.149 317.069C149.793 317.069 150.291 317.25 150.643 317.611C150.994 317.973 151.17 318.427 151.17 318.974C151.17 319.511 150.994 319.96 150.643 320.321C150.291 320.673 149.793 320.849 149.149 320.849C148.504 320.849 148.006 320.673 147.655 320.321C147.313 319.96 147.142 319.511 147.142 318.974ZM154.144 330.868C154.144 329.315 154.451 327.919 155.067 326.679C155.682 325.429 156.546 324.472 157.66 323.808C158.773 323.134 160.052 322.797 161.497 322.797C163.636 322.797 165.369 323.485 166.698 324.862C168.035 326.239 168.758 328.065 168.866 330.341L168.88 331.176C168.88 332.738 168.577 334.135 167.972 335.365C167.376 336.596 166.517 337.548 165.394 338.222C164.281 338.896 162.992 339.232 161.527 339.232C159.29 339.232 157.498 338.49 156.151 337.006C154.813 335.512 154.144 333.524 154.144 331.044V330.868ZM157.703 331.176C157.703 332.807 158.04 334.086 158.714 335.014C159.388 335.932 160.326 336.391 161.527 336.391C162.728 336.391 163.66 335.922 164.325 334.984C164.998 334.047 165.335 332.675 165.335 330.868C165.335 329.267 164.989 327.997 164.295 327.06C163.612 326.122 162.679 325.653 161.497 325.653C160.335 325.653 159.412 326.117 158.729 327.045C158.045 327.963 157.703 329.34 157.703 331.176ZM175.194 323.09L175.296 324.921C176.468 323.505 178.006 322.797 179.91 322.797C183.211 322.797 184.891 324.687 184.95 328.466V338.939H181.39V328.671C181.39 327.665 181.17 326.923 180.731 326.444C180.301 325.956 179.593 325.712 178.607 325.712C177.171 325.712 176.102 326.361 175.399 327.66V338.939H171.839V323.09H175.194Z" fill="#D67676"/>
</g>
<rect x="387" y="583.122" width="419" height="71.8787" rx="35.9394" fill="#5A5858"/>
<path d="M557.732 619.587C557.732 620.666 557.56 621.6 557.216 622.392C556.878 623.179 556.401 623.804 555.787 624.267L557.74 625.791L556.458 626.947L554.037 625.033C553.719 625.1 553.378 625.134 553.013 625.134C552.097 625.134 551.276 624.91 550.552 624.462C549.833 624.009 549.276 623.366 548.88 622.533C548.49 621.699 548.292 620.738 548.287 619.65V619.009C548.287 617.9 548.482 616.921 548.873 616.072C549.268 615.223 549.823 614.574 550.537 614.126C551.255 613.673 552.076 613.447 552.998 613.447C553.935 613.447 554.761 613.671 555.474 614.119C556.193 614.561 556.748 615.202 557.138 616.041C557.529 616.874 557.727 617.845 557.732 618.955V619.587ZM555.748 618.994C555.748 617.712 555.508 616.741 555.029 616.08C554.55 615.418 553.873 615.087 552.998 615.087C552.149 615.087 551.482 615.423 550.998 616.095C550.518 616.762 550.274 617.705 550.263 618.923V619.587C550.263 620.817 550.503 621.778 550.982 622.47C551.466 623.163 552.143 623.509 553.013 623.509C553.893 623.509 554.568 623.176 555.037 622.509C555.511 621.843 555.748 620.869 555.748 619.587V618.994ZM564.677 624.15C564.12 624.806 563.328 625.134 562.302 625.134C561.386 625.134 560.69 624.866 560.216 624.33C559.748 623.793 559.513 623.017 559.513 622.001V616.525H561.412V621.978C561.412 623.051 561.857 623.587 562.748 623.587C563.669 623.587 564.292 623.257 564.615 622.595V616.525H566.513V624.978H564.724L564.677 624.15ZM570.466 624.978H568.568V616.525H570.466V624.978ZM568.451 614.33C568.451 614.038 568.542 613.796 568.724 613.603C568.912 613.41 569.177 613.314 569.521 613.314C569.865 613.314 570.13 613.41 570.318 613.603C570.505 613.796 570.599 614.038 570.599 614.33C570.599 614.616 570.505 614.856 570.318 615.048C570.13 615.236 569.865 615.33 569.521 615.33C569.177 615.33 568.912 615.236 568.724 615.048C568.542 614.856 568.451 614.616 568.451 614.33ZM576.013 623.619C576.487 623.619 576.88 623.481 577.193 623.205C577.505 622.929 577.672 622.587 577.693 622.181H579.482C579.461 622.707 579.297 623.199 578.99 623.658C578.682 624.111 578.266 624.47 577.74 624.736C577.214 625.001 576.646 625.134 576.037 625.134C574.854 625.134 573.917 624.751 573.224 623.986C572.531 623.22 572.185 622.163 572.185 620.814V620.619C572.185 619.332 572.529 618.304 573.216 617.533C573.904 616.757 574.841 616.369 576.029 616.369C577.034 616.369 577.852 616.663 578.482 617.251C579.117 617.835 579.451 618.603 579.482 619.556H577.693C577.672 619.072 577.505 618.673 577.193 618.361C576.886 618.048 576.492 617.892 576.013 617.892C575.399 617.892 574.925 618.116 574.591 618.564C574.258 619.007 574.089 619.681 574.083 620.587V620.892C574.083 621.809 574.248 622.494 574.576 622.947C574.909 623.395 575.388 623.619 576.013 623.619ZM583.662 621.353L582.818 622.22V624.978H580.919V612.978H582.818V619.9L583.412 619.158L585.748 616.525H588.029L584.888 620.048L588.365 624.978H586.169L583.662 621.353ZM599.81 622.33H595.404L594.482 624.978H592.427L596.724 613.603H598.498L602.802 624.978H600.74L599.81 622.33ZM595.958 620.736H599.255L597.607 616.017L595.958 620.736ZM607.388 623.619C607.862 623.619 608.255 623.481 608.568 623.205C608.88 622.929 609.047 622.587 609.068 622.181H610.857C610.836 622.707 610.672 623.199 610.365 623.658C610.057 624.111 609.641 624.47 609.115 624.736C608.589 625.001 608.021 625.134 607.412 625.134C606.229 625.134 605.292 624.751 604.599 623.986C603.906 623.22 603.56 622.163 603.56 620.814V620.619C603.56 619.332 603.904 618.304 604.591 617.533C605.279 616.757 606.216 616.369 607.404 616.369C608.409 616.369 609.227 616.663 609.857 617.251C610.492 617.835 610.826 618.603 610.857 619.556H609.068C609.047 619.072 608.88 618.673 608.568 618.361C608.261 618.048 607.867 617.892 607.388 617.892C606.774 617.892 606.3 618.116 605.966 618.564C605.633 619.007 605.464 619.681 605.458 620.587V620.892C605.458 621.809 605.623 622.494 605.951 622.947C606.284 623.395 606.763 623.619 607.388 623.619ZM615.763 623.619C616.237 623.619 616.63 623.481 616.943 623.205C617.255 622.929 617.422 622.587 617.443 622.181H619.232C619.211 622.707 619.047 623.199 618.74 623.658C618.432 624.111 618.016 624.47 617.49 624.736C616.964 625.001 616.396 625.134 615.787 625.134C614.604 625.134 613.667 624.751 612.974 623.986C612.281 623.22 611.935 622.163 611.935 620.814V620.619C611.935 619.332 612.279 618.304 612.966 617.533C613.654 616.757 614.591 616.369 615.779 616.369C616.784 616.369 617.602 616.663 618.232 617.251C618.867 617.835 619.201 618.603 619.232 619.556H617.443C617.422 619.072 617.255 618.673 616.943 618.361C616.636 618.048 616.242 617.892 615.763 617.892C615.149 617.892 614.675 618.116 614.341 618.564C614.008 619.007 613.839 619.681 613.833 620.587V620.892C613.833 621.809 613.998 622.494 614.326 622.947C614.659 623.395 615.138 623.619 615.763 623.619ZM624.388 625.134C623.185 625.134 622.208 624.757 621.458 624.001C620.714 623.241 620.341 622.231 620.341 620.97V620.736C620.341 619.892 620.503 619.139 620.826 618.478C621.154 617.811 621.612 617.293 622.201 616.923C622.789 616.554 623.445 616.369 624.169 616.369C625.32 616.369 626.208 616.736 626.833 617.47C627.464 618.205 627.779 619.244 627.779 620.587V621.353H622.255C622.313 622.051 622.544 622.603 622.951 623.009C623.362 623.416 623.878 623.619 624.498 623.619C625.367 623.619 626.076 623.267 626.623 622.564L627.646 623.541C627.307 624.046 626.854 624.439 626.287 624.72C625.724 624.996 625.091 625.134 624.388 625.134ZM624.162 617.892C623.641 617.892 623.219 618.074 622.896 618.439C622.578 618.804 622.375 619.311 622.287 619.962H625.904V619.822C625.862 619.186 625.693 618.707 625.396 618.384C625.099 618.056 624.688 617.892 624.162 617.892ZM633.998 622.681C633.998 622.343 633.857 622.085 633.576 621.908C633.3 621.731 632.839 621.574 632.193 621.439C631.547 621.304 631.008 621.132 630.576 620.923C629.628 620.465 629.154 619.801 629.154 618.931C629.154 618.202 629.461 617.593 630.076 617.103C630.69 616.613 631.472 616.369 632.419 616.369C633.43 616.369 634.245 616.619 634.865 617.119C635.49 617.619 635.802 618.267 635.802 619.064H633.904C633.904 618.699 633.768 618.397 633.498 618.158C633.227 617.913 632.867 617.791 632.419 617.791C632.003 617.791 631.662 617.887 631.396 618.08C631.136 618.272 631.005 618.53 631.005 618.853C631.005 619.145 631.128 619.371 631.373 619.533C631.617 619.694 632.112 619.858 632.857 620.025C633.602 620.186 634.185 620.382 634.607 620.611C635.034 620.835 635.349 621.106 635.552 621.423C635.761 621.741 635.865 622.126 635.865 622.58C635.865 623.34 635.55 623.957 634.919 624.431C634.289 624.9 633.464 625.134 632.443 625.134C631.75 625.134 631.133 625.009 630.591 624.759C630.05 624.509 629.628 624.166 629.326 623.728C629.024 623.291 628.873 622.819 628.873 622.314H630.716C630.742 622.762 630.912 623.108 631.224 623.353C631.537 623.593 631.951 623.712 632.466 623.712C632.966 623.712 633.347 623.619 633.607 623.431C633.867 623.238 633.998 622.988 633.998 622.681ZM642.263 622.681C642.263 622.343 642.123 622.085 641.841 621.908C641.565 621.731 641.104 621.574 640.458 621.439C639.813 621.304 639.274 621.132 638.841 620.923C637.893 620.465 637.419 619.801 637.419 618.931C637.419 618.202 637.727 617.593 638.341 617.103C638.956 616.613 639.737 616.369 640.685 616.369C641.695 616.369 642.511 616.619 643.13 617.119C643.755 617.619 644.068 618.267 644.068 619.064H642.169C642.169 618.699 642.034 618.397 641.763 618.158C641.492 617.913 641.133 617.791 640.685 617.791C640.268 617.791 639.927 617.887 639.662 618.08C639.401 618.272 639.271 618.53 639.271 618.853C639.271 619.145 639.393 619.371 639.638 619.533C639.883 619.694 640.378 619.858 641.123 620.025C641.867 620.186 642.451 620.382 642.873 620.611C643.3 620.835 643.615 621.106 643.818 621.423C644.026 621.741 644.13 622.126 644.13 622.58C644.13 623.34 643.815 623.957 643.185 624.431C642.555 624.9 641.729 625.134 640.708 625.134C640.016 625.134 639.399 625.009 638.857 624.759C638.315 624.509 637.893 624.166 637.591 623.728C637.289 623.291 637.138 622.819 637.138 622.314H638.982C639.008 622.762 639.177 623.108 639.49 623.353C639.802 623.593 640.216 623.712 640.732 623.712C641.232 623.712 641.612 623.619 641.873 623.431C642.133 623.238 642.263 622.988 642.263 622.681Z" fill="white"/>
<rect x="393" y="122.197" width="413" height="71.8787" rx="35.9394" fill="#D67676"/>
<path d="M561.961 158.082H557.289V161.582H562.75V163.16H555.312V151.785H562.695V153.378H557.289V156.519H561.961V158.082ZM569.227 163.16C569.143 162.998 569.07 162.735 569.008 162.371C568.404 163.001 567.664 163.316 566.789 163.316C565.94 163.316 565.247 163.074 564.711 162.589C564.174 162.105 563.906 161.506 563.906 160.792C563.906 159.891 564.24 159.201 564.906 158.722C565.578 158.238 566.536 157.996 567.781 157.996H568.945V157.441C568.945 157.003 568.823 156.654 568.578 156.394C568.333 156.128 567.961 155.996 567.461 155.996C567.029 155.996 566.674 156.105 566.398 156.324C566.122 156.537 565.984 156.811 565.984 157.144H564.086C564.086 156.681 564.24 156.248 564.547 155.847C564.854 155.441 565.271 155.123 565.797 154.894C566.328 154.665 566.919 154.55 567.57 154.55C568.56 154.55 569.349 154.8 569.938 155.3C570.526 155.795 570.828 156.493 570.844 157.394V161.207C570.844 161.967 570.951 162.574 571.164 163.027V163.16H569.227ZM567.141 161.792C567.516 161.792 567.867 161.701 568.195 161.519C568.529 161.337 568.779 161.092 568.945 160.785V159.191H567.922C567.219 159.191 566.69 159.313 566.336 159.558C565.982 159.803 565.805 160.149 565.805 160.597C565.805 160.962 565.924 161.253 566.164 161.472C566.409 161.686 566.734 161.792 567.141 161.792ZM577.57 160.863C577.57 160.524 577.43 160.266 577.148 160.089C576.872 159.912 576.411 159.756 575.766 159.621C575.12 159.485 574.581 159.313 574.148 159.105C573.201 158.647 572.727 157.983 572.727 157.113C572.727 156.384 573.034 155.774 573.648 155.285C574.263 154.795 575.044 154.55 575.992 154.55C577.003 154.55 577.818 154.8 578.438 155.3C579.062 155.8 579.375 156.449 579.375 157.246H577.477C577.477 156.881 577.341 156.579 577.07 156.339C576.799 156.095 576.44 155.972 575.992 155.972C575.576 155.972 575.234 156.069 574.969 156.261C574.708 156.454 574.578 156.712 574.578 157.035C574.578 157.326 574.701 157.553 574.945 157.714C575.19 157.876 575.685 158.04 576.43 158.207C577.174 158.368 577.758 158.563 578.18 158.792C578.607 159.016 578.922 159.287 579.125 159.605C579.333 159.923 579.438 160.308 579.438 160.761C579.438 161.522 579.122 162.139 578.492 162.613C577.862 163.082 577.036 163.316 576.016 163.316C575.323 163.316 574.706 163.191 574.164 162.941C573.622 162.691 573.201 162.347 572.898 161.91C572.596 161.472 572.445 161.001 572.445 160.496H574.289C574.315 160.944 574.484 161.29 574.797 161.535C575.109 161.774 575.523 161.894 576.039 161.894C576.539 161.894 576.919 161.8 577.18 161.613C577.44 161.42 577.57 161.17 577.57 160.863ZM584.055 160.441L585.773 154.707H587.797L584.438 164.441C583.922 165.863 583.047 166.574 581.812 166.574C581.536 166.574 581.232 166.527 580.898 166.433V164.964L581.258 164.988C581.737 164.988 582.096 164.899 582.336 164.722C582.581 164.55 582.773 164.259 582.914 163.847L583.188 163.121L580.219 154.707H582.266L584.055 160.441ZM595.258 152.652V154.707H596.75V156.113H595.258V160.832C595.258 161.154 595.32 161.389 595.445 161.535C595.576 161.675 595.805 161.746 596.133 161.746C596.352 161.746 596.573 161.72 596.797 161.667V163.136C596.365 163.256 595.948 163.316 595.547 163.316C594.089 163.316 593.359 162.511 593.359 160.902V156.113H591.969V154.707H593.359V152.652H595.258ZM597.617 158.855C597.617 158.027 597.781 157.282 598.109 156.621C598.438 155.954 598.898 155.444 599.492 155.089C600.086 154.73 600.768 154.55 601.539 154.55C602.68 154.55 603.604 154.917 604.312 155.652C605.026 156.386 605.411 157.36 605.469 158.574L605.477 159.019C605.477 159.852 605.315 160.597 604.992 161.253C604.674 161.91 604.216 162.417 603.617 162.777C603.023 163.136 602.336 163.316 601.555 163.316C600.362 163.316 599.406 162.92 598.688 162.128C597.974 161.332 597.617 160.272 597.617 158.949V158.855ZM599.516 159.019C599.516 159.889 599.695 160.571 600.055 161.066C600.414 161.556 600.914 161.8 601.555 161.8C602.195 161.8 602.693 161.55 603.047 161.05C603.406 160.55 603.586 159.819 603.586 158.855C603.586 158.001 603.401 157.324 603.031 156.824C602.667 156.324 602.169 156.074 601.539 156.074C600.919 156.074 600.427 156.321 600.062 156.816C599.698 157.306 599.516 158.04 599.516 159.019ZM616.188 162.332C615.63 162.988 614.839 163.316 613.812 163.316C612.896 163.316 612.201 163.048 611.727 162.511C611.258 161.975 611.023 161.199 611.023 160.183V154.707H612.922V160.16C612.922 161.233 613.367 161.769 614.258 161.769C615.18 161.769 615.802 161.438 616.125 160.777V154.707H618.023V163.16H616.234L616.188 162.332ZM624.695 160.863C624.695 160.524 624.555 160.266 624.273 160.089C623.997 159.912 623.536 159.756 622.891 159.621C622.245 159.485 621.706 159.313 621.273 159.105C620.326 158.647 619.852 157.983 619.852 157.113C619.852 156.384 620.159 155.774 620.773 155.285C621.388 154.795 622.169 154.55 623.117 154.55C624.128 154.55 624.943 154.8 625.562 155.3C626.188 155.8 626.5 156.449 626.5 157.246H624.602C624.602 156.881 624.466 156.579 624.195 156.339C623.924 156.095 623.565 155.972 623.117 155.972C622.701 155.972 622.359 156.069 622.094 156.261C621.833 156.454 621.703 156.712 621.703 157.035C621.703 157.326 621.826 157.553 622.07 157.714C622.315 157.876 622.81 158.04 623.555 158.207C624.299 158.368 624.883 158.563 625.305 158.792C625.732 159.016 626.047 159.287 626.25 159.605C626.458 159.923 626.562 160.308 626.562 160.761C626.562 161.522 626.247 162.139 625.617 162.613C624.987 163.082 624.161 163.316 623.141 163.316C622.448 163.316 621.831 163.191 621.289 162.941C620.747 162.691 620.326 162.347 620.023 161.91C619.721 161.472 619.57 161.001 619.57 160.496H621.414C621.44 160.944 621.609 161.29 621.922 161.535C622.234 161.774 622.648 161.894 623.164 161.894C623.664 161.894 624.044 161.8 624.305 161.613C624.565 161.42 624.695 161.17 624.695 160.863ZM631.945 163.316C630.742 163.316 629.766 162.938 629.016 162.183C628.271 161.423 627.898 160.412 627.898 159.152V158.917C627.898 158.074 628.06 157.321 628.383 156.66C628.711 155.993 629.169 155.475 629.758 155.105C630.346 154.735 631.003 154.55 631.727 154.55C632.878 154.55 633.766 154.917 634.391 155.652C635.021 156.386 635.336 157.425 635.336 158.769V159.535H629.812C629.87 160.233 630.102 160.785 630.508 161.191C630.919 161.597 631.435 161.8 632.055 161.8C632.924 161.8 633.633 161.449 634.18 160.746L635.203 161.722C634.865 162.227 634.411 162.621 633.844 162.902C633.281 163.178 632.648 163.316 631.945 163.316ZM631.719 156.074C631.198 156.074 630.776 156.256 630.453 156.621C630.135 156.985 629.932 157.493 629.844 158.144H633.461V158.003C633.419 157.368 633.25 156.889 632.953 156.566C632.656 156.238 632.245 156.074 631.719 156.074Z" fill="white"/>
<rect x="384" y="238.104" width="422" height="71.8787" rx="35.9394" fill="#27ACB4"/>
<path d="M539.421 279.046H537.452V267.671H539.421V279.046ZM543.428 270.593L543.483 271.569C544.108 270.814 544.928 270.437 545.944 270.437C547.705 270.437 548.6 271.444 548.632 273.46V279.046H546.733V273.569C546.733 273.033 546.616 272.637 546.382 272.382C546.152 272.121 545.775 271.991 545.249 271.991C544.483 271.991 543.913 272.338 543.538 273.03V279.046H541.639V270.593H543.428ZM555.311 276.749C555.311 276.41 555.171 276.153 554.889 275.976C554.613 275.799 554.152 275.642 553.507 275.507C552.861 275.371 552.322 275.2 551.889 274.991C550.941 274.533 550.468 273.869 550.468 272.999C550.468 272.27 550.775 271.66 551.389 271.171C552.004 270.681 552.785 270.437 553.733 270.437C554.744 270.437 555.559 270.687 556.178 271.187C556.803 271.687 557.116 272.335 557.116 273.132H555.218C555.218 272.767 555.082 272.465 554.811 272.226C554.54 271.981 554.181 271.858 553.733 271.858C553.316 271.858 552.975 271.955 552.71 272.147C552.449 272.34 552.319 272.598 552.319 272.921C552.319 273.213 552.441 273.439 552.686 273.601C552.931 273.762 553.426 273.926 554.171 274.093C554.915 274.254 555.499 274.45 555.921 274.679C556.348 274.903 556.663 275.174 556.866 275.491C557.074 275.809 557.178 276.194 557.178 276.647C557.178 277.408 556.863 278.025 556.233 278.499C555.603 278.968 554.777 279.202 553.757 279.202C553.064 279.202 552.447 279.077 551.905 278.827C551.363 278.577 550.941 278.233 550.639 277.796C550.337 277.358 550.186 276.887 550.186 276.382H552.03C552.056 276.83 552.225 277.176 552.538 277.421C552.85 277.66 553.264 277.78 553.78 277.78C554.28 277.78 554.66 277.687 554.921 277.499C555.181 277.306 555.311 277.056 555.311 276.749ZM561.218 268.538V270.593H562.71V271.999H561.218V276.718C561.218 277.041 561.28 277.275 561.405 277.421C561.535 277.562 561.764 277.632 562.093 277.632C562.311 277.632 562.533 277.606 562.757 277.554V279.022C562.324 279.142 561.908 279.202 561.507 279.202C560.048 279.202 559.319 278.397 559.319 276.788V271.999H557.928V270.593H559.319V268.538H561.218ZM569.218 279.046C569.134 278.884 569.061 278.621 568.999 278.257C568.395 278.887 567.655 279.202 566.78 279.202C565.931 279.202 565.238 278.96 564.702 278.476C564.165 277.991 563.897 277.392 563.897 276.679C563.897 275.778 564.231 275.088 564.897 274.608C565.569 274.124 566.527 273.882 567.772 273.882H568.936V273.327C568.936 272.89 568.814 272.541 568.569 272.28C568.324 272.015 567.952 271.882 567.452 271.882C567.02 271.882 566.665 271.991 566.389 272.21C566.113 272.424 565.975 272.697 565.975 273.03H564.077C564.077 272.567 564.231 272.134 564.538 271.733C564.845 271.327 565.262 271.009 565.788 270.78C566.319 270.551 566.91 270.437 567.561 270.437C568.551 270.437 569.34 270.687 569.928 271.187C570.517 271.681 570.819 272.379 570.835 273.28V277.093C570.835 277.853 570.941 278.46 571.155 278.913V279.046H569.218ZM567.132 277.679C567.507 277.679 567.858 277.588 568.186 277.405C568.52 277.223 568.77 276.978 568.936 276.671V275.077H567.913C567.21 275.077 566.681 275.2 566.327 275.444C565.973 275.689 565.796 276.035 565.796 276.483C565.796 276.848 565.915 277.14 566.155 277.358C566.4 277.572 566.725 277.679 567.132 277.679ZM574.585 270.593L574.639 271.569C575.264 270.814 576.085 270.437 577.1 270.437C578.861 270.437 579.757 271.444 579.788 273.46V279.046H577.889V273.569C577.889 273.033 577.772 272.637 577.538 272.382C577.309 272.121 576.931 271.991 576.405 271.991C575.639 271.991 575.069 272.338 574.694 273.03V279.046H572.796V270.593H574.585ZM584.108 268.538V270.593H585.6V271.999H584.108V276.718C584.108 277.041 584.171 277.275 584.296 277.421C584.426 277.562 584.655 277.632 584.983 277.632C585.202 277.632 585.423 277.606 585.647 277.554V279.022C585.215 279.142 584.798 279.202 584.397 279.202C582.939 279.202 582.21 278.397 582.21 276.788V271.999H580.819V270.593H582.21V268.538H584.108ZM593.788 267.671L597.069 276.39L600.343 267.671H602.897V279.046H600.928V275.296L601.124 270.28L597.764 279.046H596.35L592.999 270.288L593.194 275.296V279.046H591.225V267.671H593.788ZM608.78 279.202C607.577 279.202 606.6 278.825 605.85 278.069C605.106 277.309 604.733 276.299 604.733 275.038V274.804C604.733 273.96 604.895 273.207 605.218 272.546C605.546 271.879 606.004 271.361 606.593 270.991C607.181 270.621 607.837 270.437 608.561 270.437C609.712 270.437 610.6 270.804 611.225 271.538C611.856 272.272 612.171 273.312 612.171 274.655V275.421H606.647C606.705 276.119 606.936 276.671 607.343 277.077C607.754 277.483 608.27 277.687 608.889 277.687C609.759 277.687 610.468 277.335 611.014 276.632L612.038 277.608C611.699 278.114 611.246 278.507 610.678 278.788C610.116 279.064 609.483 279.202 608.78 279.202ZM608.553 271.96C608.033 271.96 607.611 272.142 607.288 272.507C606.97 272.871 606.767 273.379 606.678 274.03H610.296V273.89C610.254 273.254 610.085 272.775 609.788 272.452C609.491 272.124 609.08 271.96 608.553 271.96ZM618.389 276.749C618.389 276.41 618.249 276.153 617.968 275.976C617.691 275.799 617.231 275.642 616.585 275.507C615.939 275.371 615.4 275.2 614.968 274.991C614.02 274.533 613.546 273.869 613.546 272.999C613.546 272.27 613.853 271.66 614.468 271.171C615.082 270.681 615.863 270.437 616.811 270.437C617.822 270.437 618.637 270.687 619.257 271.187C619.882 271.687 620.194 272.335 620.194 273.132H618.296C618.296 272.767 618.16 272.465 617.889 272.226C617.619 271.981 617.259 271.858 616.811 271.858C616.395 271.858 616.053 271.955 615.788 272.147C615.527 272.34 615.397 272.598 615.397 272.921C615.397 273.213 615.52 273.439 615.764 273.601C616.009 273.762 616.504 273.926 617.249 274.093C617.994 274.254 618.577 274.45 618.999 274.679C619.426 274.903 619.741 275.174 619.944 275.491C620.152 275.809 620.257 276.194 620.257 276.647C620.257 277.408 619.941 278.025 619.311 278.499C618.681 278.968 617.856 279.202 616.835 279.202C616.142 279.202 615.525 279.077 614.983 278.827C614.441 278.577 614.02 278.233 613.718 277.796C613.415 277.358 613.264 276.887 613.264 276.382H615.108C615.134 276.83 615.303 277.176 615.616 277.421C615.928 277.66 616.343 277.78 616.858 277.78C617.358 277.78 617.738 277.687 617.999 277.499C618.259 277.306 618.389 277.056 618.389 276.749ZM626.655 276.749C626.655 276.41 626.514 276.153 626.233 275.976C625.957 275.799 625.496 275.642 624.85 275.507C624.205 275.371 623.665 275.2 623.233 274.991C622.285 274.533 621.811 273.869 621.811 272.999C621.811 272.27 622.119 271.66 622.733 271.171C623.348 270.681 624.129 270.437 625.077 270.437C626.087 270.437 626.902 270.687 627.522 271.187C628.147 271.687 628.46 272.335 628.46 273.132H626.561C626.561 272.767 626.426 272.465 626.155 272.226C625.884 271.981 625.525 271.858 625.077 271.858C624.66 271.858 624.319 271.955 624.053 272.147C623.793 272.34 623.663 272.598 623.663 272.921C623.663 273.213 623.785 273.439 624.03 273.601C624.275 273.762 624.77 273.926 625.514 274.093C626.259 274.254 626.843 274.45 627.264 274.679C627.691 274.903 628.007 275.174 628.21 275.491C628.418 275.809 628.522 276.194 628.522 276.647C628.522 277.408 628.207 278.025 627.577 278.499C626.947 278.968 626.121 279.202 625.1 279.202C624.408 279.202 623.79 279.077 623.249 278.827C622.707 278.577 622.285 278.233 621.983 277.796C621.681 277.358 621.53 276.887 621.53 276.382H623.374C623.4 276.83 623.569 277.176 623.882 277.421C624.194 277.66 624.608 277.78 625.124 277.78C625.624 277.78 626.004 277.687 626.264 277.499C626.525 277.306 626.655 277.056 626.655 276.749ZM635.233 279.046C635.15 278.884 635.077 278.621 635.014 278.257C634.41 278.887 633.671 279.202 632.796 279.202C631.947 279.202 631.254 278.96 630.718 278.476C630.181 277.991 629.913 277.392 629.913 276.679C629.913 275.778 630.246 275.088 630.913 274.608C631.585 274.124 632.543 273.882 633.788 273.882H634.952V273.327C634.952 272.89 634.83 272.541 634.585 272.28C634.34 272.015 633.968 271.882 633.468 271.882C633.035 271.882 632.681 271.991 632.405 272.21C632.129 272.424 631.991 272.697 631.991 273.03H630.093C630.093 272.567 630.246 272.134 630.553 271.733C630.861 271.327 631.277 271.009 631.803 270.78C632.335 270.551 632.926 270.437 633.577 270.437C634.566 270.437 635.356 270.687 635.944 271.187C636.533 271.681 636.835 272.379 636.85 273.28V277.093C636.85 277.853 636.957 278.46 637.171 278.913V279.046H635.233ZM633.147 277.679C633.522 277.679 633.874 277.588 634.202 277.405C634.535 277.223 634.785 276.978 634.952 276.671V275.077H633.928C633.225 275.077 632.697 275.2 632.343 275.444C631.988 275.689 631.811 276.035 631.811 276.483C631.811 276.848 631.931 277.14 632.171 277.358C632.415 277.572 632.741 277.679 633.147 277.679ZM638.507 274.757C638.507 273.444 638.814 272.397 639.428 271.616C640.048 270.83 640.869 270.437 641.889 270.437C642.853 270.437 643.611 270.772 644.163 271.444L644.249 270.593H645.96V278.788C645.96 279.897 645.613 280.772 644.921 281.413C644.233 282.054 643.303 282.374 642.132 282.374C641.512 282.374 640.905 282.244 640.311 281.983C639.723 281.728 639.275 281.392 638.968 280.976L639.866 279.835C640.449 280.528 641.168 280.874 642.022 280.874C642.652 280.874 643.15 280.702 643.514 280.358C643.879 280.02 644.061 279.52 644.061 278.858V278.288C643.514 278.897 642.785 279.202 641.874 279.202C640.884 279.202 640.074 278.809 639.444 278.022C638.819 277.236 638.507 276.147 638.507 274.757ZM640.397 274.921C640.397 275.77 640.569 276.439 640.913 276.929C641.262 277.413 641.744 277.655 642.358 277.655C643.124 277.655 643.691 277.327 644.061 276.671V272.952C643.702 272.312 643.139 271.991 642.374 271.991C641.749 271.991 641.262 272.239 640.913 272.733C640.569 273.228 640.397 273.957 640.397 274.921ZM651.639 279.202C650.436 279.202 649.46 278.825 648.71 278.069C647.965 277.309 647.593 276.299 647.593 275.038V274.804C647.593 273.96 647.754 273.207 648.077 272.546C648.405 271.879 648.863 271.361 649.452 270.991C650.04 270.621 650.697 270.437 651.421 270.437C652.572 270.437 653.46 270.804 654.085 271.538C654.715 272.272 655.03 273.312 655.03 274.655V275.421H649.507C649.564 276.119 649.796 276.671 650.202 277.077C650.613 277.483 651.129 277.687 651.749 277.687C652.619 277.687 653.327 277.335 653.874 276.632L654.897 277.608C654.559 278.114 654.106 278.507 653.538 278.788C652.975 279.064 652.343 279.202 651.639 279.202ZM651.413 271.96C650.892 271.96 650.47 272.142 650.147 272.507C649.83 272.871 649.626 273.379 649.538 274.03H653.155V273.89C653.113 273.254 652.944 272.775 652.647 272.452C652.35 272.124 651.939 271.96 651.413 271.96ZM661.249 276.749C661.249 276.41 661.108 276.153 660.827 275.976C660.551 275.799 660.09 275.642 659.444 275.507C658.798 275.371 658.259 275.2 657.827 274.991C656.879 274.533 656.405 273.869 656.405 272.999C656.405 272.27 656.712 271.66 657.327 271.171C657.941 270.681 658.723 270.437 659.671 270.437C660.681 270.437 661.496 270.687 662.116 271.187C662.741 271.687 663.053 272.335 663.053 273.132H661.155C661.155 272.767 661.02 272.465 660.749 272.226C660.478 271.981 660.119 271.858 659.671 271.858C659.254 271.858 658.913 271.955 658.647 272.147C658.387 272.34 658.257 272.598 658.257 272.921C658.257 273.213 658.379 273.439 658.624 273.601C658.869 273.762 659.363 273.926 660.108 274.093C660.853 274.254 661.436 274.45 661.858 274.679C662.285 274.903 662.6 275.174 662.803 275.491C663.012 275.809 663.116 276.194 663.116 276.647C663.116 277.408 662.801 278.025 662.171 278.499C661.54 278.968 660.715 279.202 659.694 279.202C659.001 279.202 658.384 279.077 657.843 278.827C657.301 278.577 656.879 278.233 656.577 277.796C656.275 277.358 656.124 276.887 656.124 276.382H657.968C657.994 276.83 658.163 277.176 658.475 277.421C658.788 277.66 659.202 277.78 659.718 277.78C660.218 277.78 660.598 277.687 660.858 277.499C661.119 277.306 661.249 277.056 661.249 276.749Z" fill="white"/>
<rect x="384" y="349.507" width="422" height="71.8787" rx="35.9394" fill="#625697"/>
<path d="M576.685 387.542C576.685 387.042 576.508 386.657 576.154 386.386C575.805 386.115 575.172 385.841 574.255 385.565C573.338 385.289 572.609 384.982 572.068 384.644C571.031 383.993 570.513 383.144 570.513 382.097C570.513 381.18 570.885 380.425 571.63 379.831C572.38 379.237 573.351 378.94 574.544 378.94C575.336 378.94 576.042 379.086 576.661 379.378C577.281 379.67 577.768 380.086 578.122 380.628C578.476 381.164 578.654 381.761 578.654 382.417H576.685C576.685 381.823 576.497 381.36 576.122 381.026C575.753 380.688 575.221 380.519 574.529 380.519C573.883 380.519 573.38 380.657 573.021 380.933C572.667 381.209 572.49 381.594 572.49 382.089C572.49 382.506 572.682 382.854 573.068 383.136C573.453 383.412 574.088 383.683 574.974 383.948C575.859 384.209 576.57 384.508 577.107 384.847C577.643 385.18 578.036 385.565 578.286 386.003C578.536 386.435 578.661 386.943 578.661 387.526C578.661 388.474 578.297 389.229 577.568 389.792C576.844 390.349 575.859 390.628 574.615 390.628C573.792 390.628 573.034 390.477 572.341 390.175C571.654 389.868 571.117 389.446 570.732 388.909C570.351 388.373 570.161 387.748 570.161 387.034H572.138C572.138 387.68 572.351 388.18 572.779 388.534C573.206 388.888 573.818 389.065 574.615 389.065C575.302 389.065 575.818 388.927 576.161 388.651C576.51 388.37 576.685 388 576.685 387.542ZM585.263 390.472C585.18 390.31 585.107 390.047 585.044 389.683C584.44 390.313 583.7 390.628 582.825 390.628C581.976 390.628 581.284 390.386 580.747 389.901C580.211 389.417 579.943 388.818 579.943 388.104C579.943 387.203 580.276 386.513 580.943 386.034C581.615 385.55 582.573 385.308 583.818 385.308H584.982V384.753C584.982 384.315 584.859 383.966 584.615 383.706C584.37 383.44 583.997 383.308 583.497 383.308C583.065 383.308 582.711 383.417 582.435 383.636C582.159 383.849 582.021 384.123 582.021 384.456H580.122C580.122 383.993 580.276 383.56 580.583 383.159C580.891 382.753 581.307 382.435 581.833 382.206C582.365 381.977 582.956 381.862 583.607 381.862C584.596 381.862 585.385 382.112 585.974 382.612C586.562 383.107 586.865 383.805 586.88 384.706V388.519C586.88 389.279 586.987 389.886 587.2 390.339V390.472H585.263ZM583.177 389.104C583.552 389.104 583.904 389.013 584.232 388.831C584.565 388.649 584.815 388.404 584.982 388.097V386.503H583.958C583.255 386.503 582.726 386.625 582.372 386.87C582.018 387.115 581.841 387.461 581.841 387.909C581.841 388.274 581.961 388.565 582.2 388.784C582.445 388.998 582.771 389.104 583.177 389.104ZM589.536 390.472V383.425H588.247V382.019H589.536V381.245C589.536 380.308 589.797 379.584 590.318 379.073C590.838 378.563 591.568 378.308 592.505 378.308C592.838 378.308 593.193 378.354 593.568 378.448L593.521 379.933C593.312 379.891 593.07 379.87 592.794 379.87C591.888 379.87 591.435 380.336 591.435 381.269V382.019H593.154V383.425H591.435V390.472H589.536ZM598.075 390.628C596.872 390.628 595.896 390.25 595.146 389.495C594.401 388.735 594.029 387.724 594.029 386.464V386.229C594.029 385.386 594.19 384.633 594.513 383.972C594.841 383.305 595.299 382.787 595.888 382.417C596.476 382.047 597.133 381.862 597.857 381.862C599.008 381.862 599.896 382.229 600.521 382.964C601.151 383.698 601.466 384.737 601.466 386.081V386.847H595.943C596 387.545 596.232 388.097 596.638 388.503C597.049 388.909 597.565 389.112 598.185 389.112C599.055 389.112 599.763 388.761 600.31 388.058L601.333 389.034C600.995 389.539 600.542 389.933 599.974 390.214C599.411 390.49 598.779 390.628 598.075 390.628ZM597.849 383.386C597.328 383.386 596.906 383.568 596.583 383.933C596.266 384.297 596.062 384.805 595.974 385.456H599.591V385.315C599.549 384.68 599.38 384.201 599.083 383.878C598.786 383.55 598.375 383.386 597.849 383.386ZM606.63 387.401C606.63 386.875 606.773 386.394 607.06 385.956C607.346 385.513 607.911 384.99 608.755 384.386C608.312 383.828 608.003 383.354 607.825 382.964C607.654 382.573 607.568 382.196 607.568 381.831C607.568 380.94 607.838 380.237 608.38 379.722C608.922 379.201 609.651 378.94 610.568 378.94C611.396 378.94 612.073 379.185 612.599 379.675C613.13 380.159 613.396 380.761 613.396 381.479C613.396 381.953 613.276 382.391 613.036 382.792C612.797 383.188 612.404 383.584 611.857 383.979L611.083 384.542L613.279 387.136C613.596 386.511 613.755 385.815 613.755 385.05H615.404C615.404 386.451 615.075 387.599 614.419 388.495L616.091 390.472H613.888L613.247 389.714C612.435 390.323 611.466 390.628 610.341 390.628C609.216 390.628 608.315 390.331 607.638 389.737C606.966 389.138 606.63 388.36 606.63 387.401ZM610.396 389.112C611.036 389.112 611.635 388.899 612.193 388.472L609.708 385.542L609.466 385.714C608.841 386.188 608.529 386.729 608.529 387.339C608.529 387.865 608.698 388.292 609.036 388.62C609.375 388.948 609.828 389.112 610.396 389.112ZM609.349 381.784C609.349 382.222 609.617 382.771 610.154 383.433L611.021 382.839L611.263 382.644C611.586 382.357 611.747 381.99 611.747 381.542C611.747 381.245 611.635 380.993 611.411 380.784C611.187 380.571 610.904 380.464 610.56 380.464C610.19 380.464 609.896 380.589 609.677 380.839C609.458 381.089 609.349 381.404 609.349 381.784ZM627.279 387.542C627.279 387.042 627.101 386.657 626.747 386.386C626.398 386.115 625.766 385.841 624.849 385.565C623.932 385.289 623.203 384.982 622.661 384.644C621.625 383.993 621.107 383.144 621.107 382.097C621.107 381.18 621.479 380.425 622.224 379.831C622.974 379.237 623.945 378.94 625.138 378.94C625.93 378.94 626.635 379.086 627.255 379.378C627.875 379.67 628.362 380.086 628.716 380.628C629.07 381.164 629.247 381.761 629.247 382.417H627.279C627.279 381.823 627.091 381.36 626.716 381.026C626.346 380.688 625.815 380.519 625.122 380.519C624.476 380.519 623.974 380.657 623.615 380.933C623.26 381.209 623.083 381.594 623.083 382.089C623.083 382.506 623.276 382.854 623.661 383.136C624.047 383.412 624.682 383.683 625.568 383.948C626.453 384.209 627.164 384.508 627.7 384.847C628.237 385.18 628.63 385.565 628.88 386.003C629.13 386.435 629.255 386.943 629.255 387.526C629.255 388.474 628.891 389.229 628.161 389.792C627.437 390.349 626.453 390.628 625.208 390.628C624.385 390.628 623.628 390.477 622.935 390.175C622.247 389.868 621.711 389.446 621.325 388.909C620.945 388.373 620.755 387.748 620.755 387.034H622.732C622.732 387.68 622.945 388.18 623.372 388.534C623.799 388.888 624.411 389.065 625.208 389.065C625.896 389.065 626.411 388.927 626.755 388.651C627.104 388.37 627.279 388 627.279 387.542ZM634.529 390.628C633.325 390.628 632.349 390.25 631.599 389.495C630.854 388.735 630.482 387.724 630.482 386.464V386.229C630.482 385.386 630.643 384.633 630.966 383.972C631.294 383.305 631.753 382.787 632.341 382.417C632.93 382.047 633.586 381.862 634.31 381.862C635.461 381.862 636.349 382.229 636.974 382.964C637.604 383.698 637.919 384.737 637.919 386.081V386.847H632.396C632.453 387.545 632.685 388.097 633.091 388.503C633.503 388.909 634.018 389.112 634.638 389.112C635.508 389.112 636.216 388.761 636.763 388.058L637.786 389.034C637.448 389.539 636.995 389.933 636.427 390.214C635.865 390.49 635.232 390.628 634.529 390.628ZM634.302 383.386C633.781 383.386 633.359 383.568 633.036 383.933C632.719 384.297 632.516 384.805 632.427 385.456H636.044V385.315C636.003 384.68 635.833 384.201 635.536 383.878C635.24 383.55 634.828 383.386 634.302 383.386ZM642.872 389.112C643.346 389.112 643.74 388.974 644.052 388.698C644.365 388.422 644.531 388.081 644.552 387.675H646.341C646.32 388.201 646.156 388.693 645.849 389.151C645.542 389.604 645.125 389.964 644.599 390.229C644.073 390.495 643.505 390.628 642.896 390.628C641.713 390.628 640.776 390.245 640.083 389.479C639.391 388.714 639.044 387.657 639.044 386.308V386.112C639.044 384.826 639.388 383.797 640.075 383.026C640.763 382.25 641.7 381.862 642.888 381.862C643.893 381.862 644.711 382.157 645.341 382.745C645.976 383.328 646.31 384.097 646.341 385.05H644.552C644.531 384.565 644.365 384.167 644.052 383.854C643.745 383.542 643.351 383.386 642.872 383.386C642.258 383.386 641.784 383.61 641.45 384.058C641.117 384.5 640.948 385.175 640.943 386.081V386.386C640.943 387.302 641.107 387.987 641.435 388.44C641.768 388.888 642.247 389.112 642.872 389.112ZM652.896 389.644C652.338 390.3 651.547 390.628 650.521 390.628C649.604 390.628 648.909 390.36 648.435 389.823C647.966 389.287 647.732 388.511 647.732 387.495V382.019H649.63V387.472C649.63 388.545 650.075 389.081 650.966 389.081C651.888 389.081 652.51 388.75 652.833 388.089V382.019H654.732V390.472H652.943L652.896 389.644ZM661.091 383.753C660.841 383.711 660.583 383.69 660.318 383.69C659.448 383.69 658.862 384.024 658.56 384.69V390.472H656.661V382.019H658.474L658.521 382.964C658.979 382.229 659.615 381.862 660.427 381.862C660.698 381.862 660.922 381.899 661.099 381.972L661.091 383.753ZM665.857 390.628C664.654 390.628 663.677 390.25 662.927 389.495C662.182 388.735 661.81 387.724 661.81 386.464V386.229C661.81 385.386 661.971 384.633 662.294 383.972C662.622 383.305 663.081 382.787 663.669 382.417C664.258 382.047 664.914 381.862 665.638 381.862C666.789 381.862 667.677 382.229 668.302 382.964C668.932 383.698 669.247 384.737 669.247 386.081V386.847H663.724C663.781 387.545 664.013 388.097 664.419 388.503C664.831 388.909 665.346 389.112 665.966 389.112C666.836 389.112 667.544 388.761 668.091 388.058L669.115 389.034C668.776 389.539 668.323 389.933 667.755 390.214C667.193 390.49 666.56 390.628 665.857 390.628ZM665.63 383.386C665.109 383.386 664.687 383.568 664.365 383.933C664.047 384.297 663.844 384.805 663.755 385.456H667.372V385.315C667.331 384.68 667.161 384.201 666.865 383.878C666.568 383.55 666.156 383.386 665.63 383.386Z" fill="white"/>
<rect x="384" width="422" height="71.8787" rx="35.9394" fill="#3AAAE1"/>
<path d="M559.314 34.7617H555.767V44.543H553.806V34.7617H550.291V33.168H559.314V34.7617ZM562.65 44.543H560.752V36.0898H562.65V44.543ZM560.634 33.8945C560.634 33.6029 560.726 33.3607 560.908 33.168C561.095 32.9753 561.361 32.8789 561.705 32.8789C562.048 32.8789 562.314 32.9753 562.502 33.168C562.689 33.3607 562.783 33.6029 562.783 33.8945C562.783 34.181 562.689 34.4206 562.502 34.6133C562.314 34.8008 562.048 34.8945 561.705 34.8945C561.361 34.8945 561.095 34.8008 560.908 34.6133C560.726 34.4206 560.634 34.181 560.634 33.8945ZM566.509 36.0898L566.564 36.9727C567.158 36.2799 567.97 35.9336 569.002 35.9336C570.132 35.9336 570.905 36.3659 571.322 37.2305C571.936 36.3659 572.801 35.9336 573.916 35.9336C574.848 35.9336 575.541 36.1914 575.994 36.707C576.452 37.2227 576.686 37.9831 576.697 38.9883V44.543H574.798V39.043C574.798 38.5065 574.681 38.1133 574.447 37.8633C574.212 37.6133 573.824 37.4883 573.283 37.4883C572.851 37.4883 572.496 37.6055 572.22 37.8398C571.949 38.069 571.759 38.3711 571.65 38.7461L571.658 44.543H569.759V38.9805C569.733 37.9857 569.226 37.4883 568.236 37.4883C567.476 37.4883 566.936 37.7982 566.619 38.418V44.543H564.72V36.0898H566.509ZM582.369 44.6992C581.166 44.6992 580.189 44.3216 579.439 43.5664C578.694 42.806 578.322 41.7956 578.322 40.5352V40.3008C578.322 39.457 578.483 38.7044 578.806 38.043C579.134 37.3763 579.593 36.8581 580.181 36.4883C580.77 36.1185 581.426 35.9336 582.15 35.9336C583.301 35.9336 584.189 36.3008 584.814 37.0352C585.444 37.7695 585.759 38.8086 585.759 40.1523V40.918H580.236C580.293 41.6159 580.525 42.168 580.931 42.5742C581.343 42.9805 581.858 43.1836 582.478 43.1836C583.348 43.1836 584.056 42.832 584.603 42.1289L585.627 43.1055C585.288 43.6107 584.835 44.0039 584.267 44.2852C583.705 44.5612 583.072 44.6992 582.369 44.6992ZM582.142 37.457C581.621 37.457 581.199 37.6393 580.877 38.0039C580.559 38.3685 580.356 38.8763 580.267 39.5273H583.884V39.3867C583.843 38.7513 583.673 38.2721 583.377 37.9492C583.08 37.6211 582.668 37.457 582.142 37.457ZM597.353 41.6133C597.353 41.1133 597.176 40.7279 596.822 40.457C596.473 40.1862 595.84 39.9128 594.923 39.6367C594.007 39.3607 593.278 39.0534 592.736 38.7148C591.699 38.0638 591.181 37.2148 591.181 36.168C591.181 35.2513 591.554 34.4961 592.298 33.9023C593.048 33.3086 594.02 33.0117 595.212 33.0117C596.004 33.0117 596.71 33.1576 597.33 33.4492C597.949 33.7409 598.436 34.1576 598.791 34.6992C599.145 35.2357 599.322 35.832 599.322 36.4883H597.353C597.353 35.8945 597.166 35.431 596.791 35.0977C596.421 34.7591 595.89 34.5898 595.197 34.5898C594.551 34.5898 594.048 34.7279 593.689 35.0039C593.335 35.2799 593.158 35.6654 593.158 36.1602C593.158 36.5768 593.351 36.9258 593.736 37.207C594.121 37.4831 594.757 37.7539 595.642 38.0195C596.528 38.2799 597.239 38.5794 597.775 38.918C598.311 39.2513 598.705 39.6367 598.955 40.0742C599.205 40.5065 599.33 41.0143 599.33 41.5977C599.33 42.5456 598.965 43.3008 598.236 43.8633C597.512 44.4206 596.528 44.6992 595.283 44.6992C594.46 44.6992 593.702 44.5482 593.009 44.2461C592.322 43.9388 591.785 43.5169 591.4 42.9805C591.02 42.444 590.83 41.819 590.83 41.1055H592.806C592.806 41.7513 593.02 42.2513 593.447 42.6055C593.874 42.9596 594.486 43.1367 595.283 43.1367C595.97 43.1367 596.486 42.9987 596.83 42.7227C597.179 42.4414 597.353 42.0716 597.353 41.6133ZM605.931 44.543C605.848 44.3815 605.775 44.1185 605.712 43.7539C605.108 44.3841 604.369 44.6992 603.494 44.6992C602.645 44.6992 601.952 44.457 601.416 43.9727C600.879 43.4883 600.611 42.8893 600.611 42.1758C600.611 41.2747 600.944 40.5846 601.611 40.1055C602.283 39.6211 603.241 39.3789 604.486 39.3789H605.65V38.8242C605.65 38.3867 605.528 38.0378 605.283 37.7773C605.038 37.5117 604.666 37.3789 604.166 37.3789C603.733 37.3789 603.379 37.4883 603.103 37.707C602.827 37.9206 602.689 38.194 602.689 38.5273H600.791C600.791 38.0638 600.944 37.6315 601.252 37.2305C601.559 36.8242 601.976 36.5065 602.502 36.2773C603.033 36.0482 603.624 35.9336 604.275 35.9336C605.265 35.9336 606.054 36.1836 606.642 36.6836C607.231 37.1784 607.533 37.8763 607.548 38.7773V42.5898C607.548 43.3503 607.655 43.957 607.869 44.4102V44.543H605.931ZM603.845 43.1758C604.22 43.1758 604.572 43.0846 604.9 42.9023C605.233 42.7201 605.483 42.4753 605.65 42.168V40.5742H604.627C603.923 40.5742 603.395 40.6966 603.041 40.9414C602.686 41.1862 602.509 41.5326 602.509 41.9805C602.509 42.3451 602.629 42.6367 602.869 42.8555C603.114 43.069 603.439 43.1758 603.845 43.1758ZM612.392 42.1367L614.181 36.0898H616.142L613.212 44.543H611.564L608.611 36.0898H610.58L612.392 42.1367ZM620.947 44.6992C619.744 44.6992 618.767 44.3216 618.017 43.5664C617.272 42.806 616.9 41.7956 616.9 40.5352V40.3008C616.9 39.457 617.061 38.7044 617.384 38.043C617.712 37.3763 618.171 36.8581 618.759 36.4883C619.348 36.1185 620.004 35.9336 620.728 35.9336C621.879 35.9336 622.767 36.3008 623.392 37.0352C624.022 37.7695 624.337 38.8086 624.337 40.1523V40.918H618.814C618.871 41.6159 619.103 42.168 619.509 42.5742C619.921 42.9805 620.436 43.1836 621.056 43.1836C621.926 43.1836 622.634 42.832 623.181 42.1289L624.205 43.1055C623.866 43.6107 623.413 44.0039 622.845 44.2852C622.283 44.5612 621.65 44.6992 620.947 44.6992ZM620.72 37.457C620.199 37.457 619.778 37.6393 619.455 38.0039C619.137 38.3685 618.934 38.8763 618.845 39.5273H622.462V39.3867C622.421 38.7513 622.252 38.2721 621.955 37.9492C621.658 37.6211 621.246 37.457 620.72 37.457ZM630.244 37.8242C629.994 37.7826 629.736 37.7617 629.47 37.7617C628.601 37.7617 628.015 38.0951 627.712 38.7617V44.543H625.814V36.0898H627.627L627.673 37.0352C628.132 36.3008 628.767 35.9336 629.58 35.9336C629.851 35.9336 630.074 35.9701 630.252 36.043L630.244 37.8242Z" fill="white"/>
<rect x="380" y="467.21" width="426" height="71.8787" rx="35.9394" fill="#DF3E7B" fill-opacity="0.7"/>
<path d="M558.219 503.201C557.807 503.737 557.237 504.143 556.508 504.419C555.779 504.695 554.951 504.833 554.023 504.833C553.07 504.833 552.227 504.617 551.492 504.185C550.758 503.753 550.19 503.136 549.789 502.333C549.393 501.526 549.188 500.586 549.172 499.513V498.623C549.172 496.904 549.583 495.563 550.406 494.599C551.229 493.63 552.378 493.146 553.852 493.146C555.117 493.146 556.122 493.458 556.867 494.083C557.612 494.708 558.06 495.61 558.211 496.787H556.273C556.055 495.417 555.26 494.732 553.891 494.732C553.005 494.732 552.331 495.052 551.867 495.693C551.409 496.328 551.172 497.263 551.156 498.498V499.373C551.156 500.602 551.414 501.557 551.93 502.24C552.451 502.917 553.172 503.255 554.094 503.255C555.104 503.255 555.823 503.026 556.25 502.568V500.341H553.906V498.841H558.219V503.201ZM564.633 497.958C564.383 497.917 564.125 497.896 563.859 497.896C562.99 497.896 562.404 498.229 562.102 498.896V504.677H560.203V496.224H562.016L562.062 497.169C562.521 496.435 563.156 496.068 563.969 496.068C564.24 496.068 564.464 496.104 564.641 496.177L564.633 497.958ZM569.398 504.833C568.195 504.833 567.219 504.456 566.469 503.701C565.724 502.94 565.352 501.93 565.352 500.669V500.435C565.352 499.591 565.513 498.839 565.836 498.177C566.164 497.511 566.622 496.992 567.211 496.623C567.799 496.253 568.456 496.068 569.18 496.068C570.331 496.068 571.219 496.435 571.844 497.169C572.474 497.904 572.789 498.943 572.789 500.287V501.052H567.266C567.323 501.75 567.555 502.302 567.961 502.708C568.372 503.115 568.888 503.318 569.508 503.318C570.378 503.318 571.086 502.966 571.633 502.263L572.656 503.24C572.318 503.745 571.865 504.138 571.297 504.419C570.734 504.695 570.102 504.833 569.398 504.833ZM569.172 497.591C568.651 497.591 568.229 497.774 567.906 498.138C567.589 498.503 567.385 499.011 567.297 499.662H570.914V499.521C570.872 498.886 570.703 498.406 570.406 498.083C570.109 497.755 569.698 497.591 569.172 497.591ZM579.32 504.677C579.237 504.516 579.164 504.253 579.102 503.888C578.497 504.518 577.758 504.833 576.883 504.833C576.034 504.833 575.341 504.591 574.805 504.107C574.268 503.623 574 503.024 574 502.31C574 501.409 574.333 500.719 575 500.24C575.672 499.755 576.63 499.513 577.875 499.513H579.039V498.958C579.039 498.521 578.917 498.172 578.672 497.912C578.427 497.646 578.055 497.513 577.555 497.513C577.122 497.513 576.768 497.623 576.492 497.841C576.216 498.055 576.078 498.328 576.078 498.662H574.18C574.18 498.198 574.333 497.766 574.641 497.365C574.948 496.958 575.365 496.641 575.891 496.412C576.422 496.182 577.013 496.068 577.664 496.068C578.654 496.068 579.443 496.318 580.031 496.818C580.62 497.313 580.922 498.011 580.938 498.912V502.724C580.938 503.485 581.044 504.091 581.258 504.544V504.677H579.32ZM577.234 503.31C577.609 503.31 577.961 503.219 578.289 503.037C578.622 502.854 578.872 502.61 579.039 502.302V500.708H578.016C577.312 500.708 576.784 500.831 576.43 501.076C576.076 501.32 575.898 501.667 575.898 502.115C575.898 502.479 576.018 502.771 576.258 502.99C576.503 503.203 576.828 503.31 577.234 503.31ZM585.305 494.169V496.224H586.797V497.63H585.305V502.349C585.305 502.672 585.367 502.906 585.492 503.052C585.622 503.193 585.852 503.263 586.18 503.263C586.398 503.263 586.62 503.237 586.844 503.185V504.654C586.411 504.774 585.995 504.833 585.594 504.833C584.135 504.833 583.406 504.029 583.406 502.419V497.63H582.016V496.224H583.406V494.169H585.305ZM592.422 504.677V493.302H595.781C596.786 493.302 597.677 493.526 598.453 493.974C599.234 494.422 599.839 495.057 600.266 495.88C600.693 496.703 600.906 497.646 600.906 498.708V499.279C600.906 500.357 600.69 501.305 600.258 502.123C599.831 502.94 599.219 503.57 598.422 504.013C597.63 504.456 596.721 504.677 595.695 504.677H592.422ZM594.398 494.896V503.099H595.688C596.724 503.099 597.518 502.776 598.07 502.13C598.628 501.479 598.911 500.547 598.922 499.333V498.701C598.922 497.466 598.654 496.524 598.117 495.873C597.581 495.222 596.802 494.896 595.781 494.896H594.398ZM606.414 504.833C605.211 504.833 604.234 504.456 603.484 503.701C602.74 502.94 602.367 501.93 602.367 500.669V500.435C602.367 499.591 602.529 498.839 602.852 498.177C603.18 497.511 603.638 496.992 604.227 496.623C604.815 496.253 605.471 496.068 606.195 496.068C607.346 496.068 608.234 496.435 608.859 497.169C609.49 497.904 609.805 498.943 609.805 500.287V501.052H604.281C604.339 501.75 604.57 502.302 604.977 502.708C605.388 503.115 605.904 503.318 606.523 503.318C607.393 503.318 608.102 502.966 608.648 502.263L609.672 503.24C609.333 503.745 608.88 504.138 608.312 504.419C607.75 504.695 607.117 504.833 606.414 504.833ZM606.188 497.591C605.667 497.591 605.245 497.774 604.922 498.138C604.604 498.503 604.401 499.011 604.312 499.662H607.93V499.521C607.888 498.886 607.719 498.406 607.422 498.083C607.125 497.755 606.714 497.591 606.188 497.591ZM616.023 502.38C616.023 502.042 615.883 501.784 615.602 501.607C615.326 501.43 614.865 501.274 614.219 501.138C613.573 501.003 613.034 500.831 612.602 500.623C611.654 500.164 611.18 499.5 611.18 498.63C611.18 497.901 611.487 497.292 612.102 496.802C612.716 496.313 613.497 496.068 614.445 496.068C615.456 496.068 616.271 496.318 616.891 496.818C617.516 497.318 617.828 497.966 617.828 498.763H615.93C615.93 498.399 615.794 498.097 615.523 497.857C615.253 497.612 614.893 497.49 614.445 497.49C614.029 497.49 613.688 497.586 613.422 497.779C613.161 497.972 613.031 498.229 613.031 498.552C613.031 498.844 613.154 499.07 613.398 499.232C613.643 499.393 614.138 499.557 614.883 499.724C615.628 499.886 616.211 500.081 616.633 500.31C617.06 500.534 617.375 500.805 617.578 501.123C617.786 501.44 617.891 501.826 617.891 502.279C617.891 503.039 617.576 503.656 616.945 504.13C616.315 504.599 615.49 504.833 614.469 504.833C613.776 504.833 613.159 504.708 612.617 504.458C612.076 504.208 611.654 503.865 611.352 503.427C611.049 502.99 610.898 502.518 610.898 502.013H612.742C612.768 502.461 612.938 502.807 613.25 503.052C613.562 503.292 613.977 503.412 614.492 503.412C614.992 503.412 615.372 503.318 615.633 503.13C615.893 502.938 616.023 502.688 616.023 502.38ZM621.57 504.677H619.672V496.224H621.57V504.677ZM619.555 494.029C619.555 493.737 619.646 493.495 619.828 493.302C620.016 493.11 620.281 493.013 620.625 493.013C620.969 493.013 621.234 493.11 621.422 493.302C621.609 493.495 621.703 493.737 621.703 494.029C621.703 494.315 621.609 494.555 621.422 494.748C621.234 494.935 620.969 495.029 620.625 495.029C620.281 495.029 620.016 494.935 619.828 494.748C619.646 494.555 619.555 494.315 619.555 494.029ZM623.312 500.388C623.312 499.076 623.62 498.029 624.234 497.248C624.854 496.461 625.674 496.068 626.695 496.068C627.659 496.068 628.417 496.404 628.969 497.076L629.055 496.224H630.766V504.419C630.766 505.529 630.419 506.404 629.727 507.044C629.039 507.685 628.109 508.005 626.938 508.005C626.318 508.005 625.711 507.875 625.117 507.615C624.529 507.36 624.081 507.024 623.773 506.607L624.672 505.466C625.255 506.159 625.974 506.505 626.828 506.505C627.458 506.505 627.956 506.333 628.32 505.99C628.685 505.651 628.867 505.151 628.867 504.49V503.919C628.32 504.529 627.591 504.833 626.68 504.833C625.69 504.833 624.88 504.44 624.25 503.654C623.625 502.867 623.312 501.779 623.312 500.388ZM625.203 500.552C625.203 501.401 625.375 502.07 625.719 502.56C626.068 503.044 626.549 503.287 627.164 503.287C627.93 503.287 628.497 502.958 628.867 502.302V498.583C628.508 497.943 627.945 497.623 627.18 497.623C626.555 497.623 626.068 497.87 625.719 498.365C625.375 498.86 625.203 499.589 625.203 500.552ZM634.484 496.224L634.539 497.201C635.164 496.445 635.984 496.068 637 496.068C638.76 496.068 639.656 497.076 639.688 499.091V504.677H637.789V499.201C637.789 498.664 637.672 498.268 637.438 498.013C637.208 497.753 636.831 497.623 636.305 497.623C635.539 497.623 634.969 497.969 634.594 498.662V504.677H632.695V496.224H634.484Z" fill="white"/>
<defs>
<filter id="filter0_d" x="0" y="125.174" width="272" height="438.928" filterUnits="userSpaceOnUse" color-interpolation-filters="sRGB">
<feFlood flood-opacity="0" result="BackgroundImageFix"/>
<feColorMatrix in="SourceAlpha" type="matrix" values="0 0 0 0 0 0 0 0 0 0 0 0 0 0 0 0 0 0 127 0"/>
<feOffset dy="5"/>
<feGaussianBlur stdDeviation="10"/>
<feColorMatrix type="matrix" values="0 0 0 0 0.354167 0 0 0 0 0.346788 0 0 0 0 0.346788 0 0 0 0.2 0"/>
<feBlend mode="normal" in2="BackgroundImageFix" result="effect1_dropShadow"/>
<feBlend mode="normal" in="SourceGraphic" in2="effect1_dropShadow" result="shape"/>
</filter>
</defs>
</svg>
